<svg width="558" height="119" viewBox="0 0 558 119" fill="none" xmlns="http://www.w3.org/2000/svg">
<g clip-path="url(#clip0_5406_16957)">
<path fill-rule="evenodd" clip-rule="evenodd" d="M19.1875 38.0901C17.3684 38.0901 15.6235 38.2757 13.9158 38.6841C12.2081 39.0553 10.6488 39.6493 9.20097 40.3918C7.75311 41.1343 6.49088 42.0995 5.41427 43.2133C4.33765 44.327 3.48379 45.5892 2.8898 47.0371C2.2958 48.485 1.96168 50.0813 1.96168 51.8262C1.96168 54.0908 2.33293 56.0213 3.07542 57.6547C3.81791 59.2882 4.89452 60.6247 6.30526 61.7756C7.71599 62.8893 9.42372 63.8545 11.4656 64.6342C13.5074 65.4138 15.8091 66.1563 18.4079 66.7874C20.2641 67.2329 21.7491 67.7897 22.7886 68.3837C23.8652 68.9777 24.6448 69.646 25.0903 70.3513C25.5358 71.0567 25.7585 71.7992 25.7214 72.6159C25.7214 73.4698 25.4615 74.2123 24.9418 74.8434C24.422 75.4745 23.7538 75.9571 22.8628 76.3284C22.0089 76.6625 21.0066 76.8853 19.8928 76.8853C18.7049 76.8853 17.554 76.6625 16.4403 76.2541C15.3265 75.8458 14.3984 75.1404 13.6188 74.2494C12.8392 73.3584 12.2823 72.1704 12.0224 70.7597H0.142578C0.328201 73.3213 0.922194 75.5117 1.96168 77.405C3.00117 79.2612 4.37478 80.8205 6.11963 82.0456C7.86449 83.2707 9.94346 84.1617 12.3194 84.7557C14.6954 85.3497 17.3313 85.6467 20.227 85.6467C22.0832 85.6467 23.8652 85.461 25.61 85.0898C27.3549 84.7185 28.9884 84.1617 30.5105 83.4192C32.0326 82.6767 33.3319 81.7857 34.4828 80.672C35.6337 79.5582 36.5247 78.296 37.1558 76.8481C37.7869 75.4003 38.121 73.7297 38.121 71.9106C38.121 69.5717 37.6755 67.4556 36.6732 65.5994C35.7079 63.7432 34.1858 62.1097 32.1068 60.7732C30.0279 59.3996 27.3178 58.323 23.9766 57.5434C22.1203 57.0979 20.524 56.6524 19.2989 56.2069C18.0366 55.7614 17.0714 55.2788 16.3289 54.759C15.5864 54.2393 15.1038 53.6824 14.7697 53.0884C14.4727 52.4944 14.3242 51.8262 14.3242 51.1208C14.3242 50.1927 14.5098 49.4131 14.9182 48.8191C15.2894 48.2251 15.8091 47.7796 16.5145 47.4826C17.1828 47.1856 17.9995 47.0371 18.8905 47.0371C20.1898 47.0371 21.2665 47.297 22.1574 47.8167C23.0484 48.3365 23.7538 49.079 24.2735 50.0071C24.7933 50.9352 25.1274 52.0489 25.313 53.3112H37.1929C36.933 51.1951 36.4504 49.2275 35.6337 47.4084C34.854 45.5893 33.7403 43.9929 32.2925 42.6564C30.8446 41.3199 29.0626 40.2433 26.8723 39.5008C24.719 38.7583 22.1203 38.35 19.1132 38.35L19.1875 38.0901ZM56.4234 84.6072V39.0182H44.5436V84.6072H56.4234ZM100.787 73.5069C100.565 71.6878 100.23 70.0543 99.7107 68.6807C99.1909 67.3071 98.4484 66.1191 97.4832 65.1539C96.518 64.1887 95.2557 63.409 93.6594 62.815C96.7036 61.9241 99.0053 60.5133 100.527 58.62C102.087 56.7266 102.829 54.3135 102.829 51.4549C102.829 49.4502 102.495 47.7054 101.827 46.2946C101.196 44.8468 100.268 43.6588 99.1167 42.6935C97.9658 41.7283 96.6664 40.9858 95.1815 40.4661C93.6965 39.9092 92.1373 39.5751 90.4666 39.3894C89.6499 39.3152 88.9074 39.2409 88.1649 39.1667C87.4224 39.1296 86.6799 39.0925 85.9003 39.0553C85.1207 39.0553 84.2668 39.0553 83.3387 39.0553H65.2591V84.6443H77.1389V67.3442H79.7748C80.4059 67.3442 81.037 67.3442 81.6681 67.3442C82.2621 67.3442 82.8932 67.3442 83.5615 67.3814C85.0836 67.4927 86.3087 68.2352 87.2739 69.646C88.2392 71.0196 88.8703 72.9872 89.1673 75.5117C89.3158 76.5883 89.4643 77.6278 89.6499 78.593C89.8355 79.5582 90.0583 80.5606 90.3553 81.5258C90.6151 82.4911 90.9121 83.5306 91.2834 84.6072H104.24C103.646 83.7162 103.126 82.7509 102.681 81.6743C102.235 80.6348 101.864 79.4097 101.567 78.0732C101.27 76.7368 101.01 75.2147 100.824 73.5069H100.787ZM77.1761 58.7313V48.2993H81.8166C82.4477 48.2993 83.0417 48.2993 83.5615 48.2993C84.0812 48.2993 84.5638 48.2993 85.0093 48.3365C86.0488 48.4107 86.9398 48.5963 87.7937 48.9305C88.6104 49.2646 89.2787 49.7843 89.7613 50.4897C90.2439 51.2322 90.5038 52.1974 90.5038 53.4597C90.5038 54.7219 90.2068 55.7243 89.687 56.4296C89.1302 57.135 88.4248 57.6919 87.5709 57.9889C86.6799 58.323 85.7147 58.5086 84.7123 58.5828C84.2668 58.5828 83.8213 58.62 83.2645 58.62C82.7447 58.62 82.1507 58.62 81.5196 58.62H77.2132L77.1761 58.7313ZM131.898 38.0901C128.334 38.0901 125.141 38.647 122.282 39.7236C119.424 40.8002 116.974 42.3965 114.932 44.4384C112.89 46.4802 111.331 48.9676 110.254 51.9004C109.177 54.8333 108.621 58.1374 108.621 61.8127C108.621 65.4509 109.177 68.755 110.254 71.6878C111.331 74.6207 112.89 77.108 114.932 79.1499C116.974 81.1917 119.424 82.7881 122.282 83.8647C125.141 84.9413 128.371 85.4982 131.898 85.4982C135.462 85.4982 138.654 84.9413 141.513 83.8647C144.372 82.7881 146.822 81.1917 148.864 79.1499C150.905 77.108 152.465 74.6207 153.541 71.6878C154.618 68.755 155.175 65.488 155.175 61.8127C155.175 58.1374 154.618 54.8333 153.541 51.9004C152.465 48.9676 150.905 46.4802 148.864 44.4384C146.822 42.3965 144.372 40.8002 141.513 39.7236C138.654 38.647 135.462 38.0901 131.898 38.0901ZM131.898 76.811C129.596 76.811 127.628 76.217 125.958 75.0662C124.287 73.9153 123.025 72.2076 122.097 69.9801C121.206 67.7526 120.76 65.0425 120.723 61.8127C120.723 58.5828 121.169 55.8356 122.097 53.6082C122.988 51.3807 124.287 49.673 125.958 48.5592C127.628 47.4084 129.596 46.8144 131.898 46.8144C134.199 46.8144 136.167 47.4084 137.838 48.5592C139.508 49.7101 140.77 51.3807 141.699 53.6082C142.59 55.8356 143.035 58.5457 143.072 61.8127C143.072 65.0425 142.627 67.7526 141.699 69.9801C140.808 72.2076 139.508 73.9153 137.838 75.0662C136.167 76.217 134.199 76.811 131.898 76.811ZM174.257 48.2622H196.643V39.0182H162.377V84.6072H174.257V66.379H194.675V57.135H174.257V48.2993V48.2622ZM237.925 74.5464H214.871V39.0182H202.991V84.6072H237.925V74.5835V74.5464ZM279.394 75.3631H256.339V66.379H277.389V57.135H256.339V48.2993H278.725V39.0553H244.459V84.6443H279.394V75.4003V75.3631ZM315.033 84.6072H328.918L312.88 61.4414L328.806 39.0553H315.145L305.901 54.2393L297.325 39.0553H283.44L298.624 61.6271L282.326 84.6072H296.657L305.492 69.2005L315.07 84.6072H315.033Z" fill="url(#paint0_linear_5406_16957)"/>
<path fill-rule="evenodd" clip-rule="evenodd" d="M549.775 52.0118H519.333C520.632 49.3759 522.303 47.0742 524.344 45.1066C526.386 43.139 528.577 41.5798 530.878 40.466C533.217 39.3523 535.519 38.6469 537.858 38.4242C540.197 38.2014 542.276 38.4984 544.095 39.3894C545.914 40.2804 547.362 41.7654 548.438 43.8072C549.515 45.8862 549.96 48.5963 549.775 52.0118ZM403.43 0.000244141C370.055 18.711 299.778 80.6348 425.742 117.388C319.268 94.4451 310.247 26.2102 403.43 0.000244141ZM556.531 57.7661C557.46 54.462 557.831 51.2693 557.719 48.1508C557.608 45.0695 556.903 42.3223 555.603 39.9092C554.304 37.4961 552.411 35.6027 549.886 34.1548C547.362 32.707 544.169 32.0016 540.271 32.0016C536.373 32.0016 532.586 32.7812 529.171 34.3033C525.755 35.8255 522.711 37.8673 520.038 40.4289C517.365 42.9534 515.137 45.8491 513.318 49.116C511.499 52.3459 510.163 55.65 509.272 59.0283C508.418 62.3695 508.084 65.6736 508.344 68.9406C508.566 72.1704 509.457 75.0661 510.942 77.6277C512.427 80.1522 514.581 82.194 517.365 83.7533C520.149 85.2754 523.676 86.055 527.945 86.055C529.802 86.055 531.695 85.8322 533.626 85.3867C535.556 84.9413 537.449 84.3473 539.306 83.6419C541.162 82.9365 543.018 82.1569 544.8 81.303C546.582 80.4492 548.327 79.6696 550.035 78.9642L547.362 73.9895H547.287C544.689 75.5116 541.979 76.811 539.12 77.8133C536.261 78.8157 533.329 79.3354 530.321 79.3354C527.314 79.3354 524.678 78.7786 522.674 77.6277C520.632 76.514 519.036 74.9919 517.922 73.1356C516.808 71.2794 516.14 69.0891 515.954 66.676C515.769 64.2257 515.991 61.6642 516.66 58.9912C516.697 58.8056 516.771 58.6199 516.845 58.4343C516.919 58.2487 516.994 58.1002 517.105 57.8774H556.606L556.531 57.7661ZM512.205 33.7465L477.308 84.4958H475.711L467.581 33.7465L474.709 32.9669L480.463 69.0891L505.225 32.9669L512.205 33.7465ZM438.587 39.872C439.96 39.872 441.519 39.872 443.227 39.872C444.935 39.872 446.457 40.1319 447.794 40.5774C449.13 41.0229 450.169 41.8025 450.875 42.8791C451.58 43.9557 451.654 45.5521 451.098 47.6682C450.652 49.413 449.984 50.7867 449.056 51.8261C448.128 52.8656 447.014 53.6824 445.789 54.2764C444.527 54.8704 443.19 55.2416 441.705 55.4272C440.257 55.6128 438.735 55.7242 437.213 55.7242H434.317L438.549 39.8349L438.587 39.872ZM446.717 60.142C449.13 59.3253 451.209 58.1002 453.028 56.4667C454.81 54.8332 456.258 53.0513 457.297 51.0836C458.337 49.116 458.968 47.1113 459.117 45.0695C459.302 43.0276 458.931 41.1714 458.04 39.5008C457.149 37.8302 455.701 36.4566 453.696 35.38C451.692 34.3033 449.019 33.7465 445.715 33.7465H433.129L419.616 84.1245H426.744L432.647 62.1839H434.948C436.619 62.221 438.104 62.6665 439.366 63.5204C440.628 64.3742 441.742 65.4509 442.707 66.7502C443.673 68.0867 444.489 69.5717 445.232 71.2794C445.937 72.9871 446.606 74.6949 447.162 76.4026C447.756 78.1103 448.276 79.7438 448.833 81.3773C449.353 82.9737 449.91 84.3844 450.504 85.5724L458.485 84.1245C457.78 82.3797 457.038 80.4121 456.258 78.1475C455.478 75.8829 454.624 73.6554 453.696 71.3908C452.768 69.1262 451.729 67.0101 450.615 65.0054C449.501 63.0006 448.202 61.4043 446.754 60.142H446.717ZM422.697 33.7465H415.495L407.885 62.3324C407.216 64.8569 406.363 67.1215 405.36 69.0891C404.358 71.0567 403.096 72.7273 401.611 74.138C400.126 75.5116 398.344 76.5882 396.302 77.2936C394.223 77.999 391.847 78.3702 389.1 78.3702C386.352 78.3702 384.051 77.999 382.417 77.2193C380.784 76.4397 379.596 75.3631 378.89 73.9524C378.185 72.5416 377.851 70.8339 377.962 68.8663C378.074 66.8987 378.408 64.7084 379.039 62.3324L386.724 33.7465H379.373L371.762 62.2581C370.797 65.7479 370.389 68.9034 370.463 71.6878C370.574 74.4721 371.243 76.8481 372.468 78.7786C373.73 80.7091 375.586 82.194 378.036 83.2335C380.524 84.273 383.679 84.7928 387.503 84.7928C395.039 84.7928 401.017 82.8252 405.509 78.8528C409.964 74.8805 413.119 69.3861 415.013 62.3324L422.697 33.7465Z" fill="#231F20"/>
<path fill-rule="evenodd" clip-rule="evenodd" d="M0 109.443L1.74485 109.295C1.8191 110.037 2.00473 110.631 2.33885 111.077C2.63584 111.559 3.11846 111.931 3.74958 112.228C4.3807 112.525 5.12319 112.673 5.90281 112.673C6.60817 112.673 7.23929 112.562 7.79616 112.339C8.35303 112.116 8.72427 111.819 9.02127 111.448C9.28114 111.077 9.42964 110.668 9.42964 110.186C9.42964 109.703 9.31827 109.332 9.0584 108.998C8.79852 108.664 8.39015 108.367 7.79616 108.144C7.42491 107.995 6.57105 107.773 5.30881 107.439C4.00945 107.105 3.11846 106.808 2.59872 106.548C1.93048 106.176 1.44786 105.731 1.11374 105.174C0.779616 104.654 0.631118 104.023 0.631118 103.355C0.631118 102.612 0.816741 101.944 1.22511 101.313C1.63348 100.682 2.22747 100.199 2.96997 99.8652C3.74958 99.5311 4.60345 99.3826 5.53156 99.3826C6.57105 99.3826 7.49916 99.5682 8.27878 99.9023C9.05839 100.236 9.68951 100.756 10.0979 101.424C10.5434 102.093 10.7661 102.872 10.8033 103.726L9.02127 103.875C8.9099 102.947 8.6129 102.278 8.05603 101.796C7.49916 101.313 6.68242 101.09 5.60581 101.09C4.5292 101.09 3.67533 101.313 3.15559 101.721C2.63584 102.13 2.37597 102.65 2.37597 103.281C2.37597 103.8 2.5616 104.246 2.93284 104.58C3.30409 104.914 4.2322 105.248 5.71718 105.62C7.23929 105.991 8.27878 106.288 8.83565 106.548C9.65239 106.919 10.2464 107.439 10.6548 108.033C11.026 108.627 11.2487 109.332 11.2487 110.074C11.2487 110.817 11.026 111.559 10.6176 112.265C10.1721 112.933 9.57814 113.49 8.7614 113.861C7.94466 114.232 7.05367 114.418 6.0513 114.418C4.78907 114.418 3.71246 114.232 2.85859 113.861C2.00473 113.49 1.33648 112.896 0.853865 112.116C0.371246 111.337 0.111374 110.483 0.0742491 109.518L0 109.443ZM13.4762 101.61V99.5682H15.1839V101.61H13.4762ZM13.4762 114.084V103.541H15.1839V114.084H13.4762ZM17.8198 114.084V103.541H19.379V105.137C19.7874 104.394 20.1586 103.912 20.4928 103.652C20.8269 103.429 21.1981 103.281 21.6065 103.281C22.2005 103.281 22.7945 103.466 23.3885 103.838L22.7574 105.471C22.349 105.211 21.9035 105.1 21.4951 105.1C21.1239 105.1 20.7898 105.211 20.4928 105.434C20.1958 105.657 19.973 105.991 19.8616 106.399C19.676 107.03 19.5646 107.736 19.5646 108.478V113.973H17.8569L17.8198 114.084ZM23.7226 108.812C23.7226 106.882 24.2423 105.434 25.2818 104.506C26.1728 103.726 27.2123 103.355 28.4745 103.355C29.8853 103.355 30.999 103.838 31.89 104.766C32.781 105.694 33.2265 107.03 33.2265 108.701C33.2265 110.037 33.0409 111.114 32.6325 111.894C32.2241 112.673 31.6673 113.267 30.9248 113.713C30.1823 114.158 29.3655 114.344 28.4745 114.344C27.0638 114.344 25.9129 113.861 25.022 112.933C24.131 112.005 23.7226 110.631 23.7226 108.849V108.812ZM25.4675 108.849C25.4675 110.186 25.7645 111.188 26.3213 111.856C26.8782 112.525 27.6207 112.859 28.4745 112.859C29.3284 112.859 30.0338 112.525 30.6278 111.856C31.1846 111.188 31.4816 110.149 31.4816 108.775C31.4816 107.476 31.1846 106.511 30.6278 105.842C30.0709 105.174 29.3284 104.84 28.5117 104.84C27.6949 104.84 26.9153 105.174 26.3584 105.842C25.8016 106.511 25.5046 107.513 25.5046 108.849H25.4675ZM35.2312 114.084V99.5682H36.9389V114.084H35.2312ZM39.6119 101.61V99.5682H41.3196V101.61H39.6119ZM39.6119 114.084V103.541H41.3196V114.084H39.6119ZM43.9926 114.084V103.541H45.5518V105.026C45.886 104.506 46.2943 104.097 46.8141 103.8C47.3338 103.503 47.9278 103.318 48.6332 103.318C49.3757 103.318 50.0068 103.466 50.4894 103.8C50.972 104.135 51.3062 104.58 51.4918 105.174C52.3085 103.949 53.348 103.318 54.6474 103.318C55.6497 103.318 56.4293 103.615 56.9862 104.172C57.5431 104.766 57.803 105.657 57.803 106.845V114.047H56.0952V107.439C56.0952 106.733 56.021 106.214 55.9096 105.917C55.7982 105.62 55.6126 105.36 55.3156 105.174C55.0186 104.988 54.6845 104.877 54.2761 104.877C53.5708 104.877 52.9768 105.137 52.4941 105.62C52.0115 106.102 51.7888 106.919 51.7888 107.995V114.121H50.081V107.29C50.081 106.511 49.9325 105.917 49.6727 105.508C49.3757 105.1 48.9302 104.914 48.2991 104.914C47.8164 104.914 47.3709 105.063 46.9626 105.323C46.5542 105.582 46.2572 105.954 46.0716 106.473C45.886 106.993 45.8117 107.699 45.8117 108.664V114.121H44.104L43.9926 114.084ZM66.9727 114.084V112.525C66.1931 113.713 65.1165 114.307 63.7429 114.307C63.1489 114.307 62.592 114.195 62.0723 113.935C61.5525 113.713 61.1813 113.416 60.9214 113.044C60.6615 112.673 60.4759 112.228 60.4017 111.708C60.3274 111.374 60.2903 110.817 60.2903 110.037V103.541H61.998V109.369C61.998 110.297 61.998 110.928 62.1094 111.262C62.2208 111.745 62.4435 112.079 62.8148 112.376C63.1489 112.636 63.5944 112.785 64.1141 112.785C64.6339 112.785 65.1165 112.636 65.562 112.376C66.0075 112.116 66.3416 111.745 66.5272 111.262C66.7129 110.78 66.8242 110.112 66.8242 109.221V103.578H68.532V114.121H66.9727V114.084ZM70.5367 110.965L72.2444 110.668C72.3558 111.374 72.6157 111.931 73.0612 112.302C73.5066 112.673 74.1006 112.859 74.8803 112.859C75.6599 112.859 76.2539 112.71 76.6622 112.376C77.0335 112.042 77.2191 111.671 77.2191 111.188C77.2191 110.78 77.0335 110.483 76.6994 110.223C76.4395 110.074 75.8826 109.852 74.9174 109.629C73.6551 109.295 72.7642 109.035 72.2815 108.775C71.7989 108.515 71.4277 108.218 71.1678 107.773C70.9079 107.364 70.7966 106.882 70.7966 106.362C70.7966 105.879 70.9079 105.471 71.0935 105.063C71.3163 104.654 71.5762 104.32 71.9474 104.06C72.2073 103.875 72.5785 103.689 73.0612 103.541C73.5438 103.392 74.0264 103.318 74.5461 103.318C75.3258 103.318 76.0311 103.429 76.6622 103.689C77.2562 103.912 77.7017 104.246 77.9987 104.654C78.2957 105.063 78.4813 105.62 78.5927 106.288L76.9221 106.548C76.8479 105.991 76.6251 105.582 76.2539 105.248C75.8826 104.951 75.3629 104.803 74.6946 104.803C73.915 104.803 73.3581 104.951 72.9869 105.211C72.6528 105.471 72.4672 105.805 72.4672 106.176C72.4672 106.399 72.5414 106.622 72.6899 106.808C72.8384 106.993 73.0612 107.142 73.3582 107.29C73.5438 107.364 74.0264 107.513 74.8803 107.736C76.1054 108.07 76.9592 108.33 77.4419 108.552C77.9245 108.775 78.2957 109.072 78.5927 109.48C78.8526 109.889 79.0011 110.409 79.0011 111.003C79.0011 111.597 78.8526 112.153 78.4813 112.673C78.1472 113.193 77.6646 113.601 77.0335 113.898C76.4024 114.195 75.697 114.344 74.8803 114.344C73.5438 114.344 72.5414 114.047 71.8732 113.49C71.1678 112.933 70.7223 112.079 70.5367 110.965ZM86.7601 114.084V99.5682H96.8951V101.276H88.6164V105.731H96.3754V107.439H88.6164V112.376H97.2292V114.084H86.7601ZM99.531 114.084V99.5682H101.239V114.084H99.531ZM110.594 114.084V112.525C109.814 113.713 108.738 114.307 107.364 114.307C106.77 114.307 106.213 114.195 105.694 113.935C105.174 113.713 104.803 113.416 104.543 113.044C104.283 112.673 104.097 112.228 104.023 111.708C103.949 111.374 103.912 110.817 103.912 110.037V103.541H105.619V109.369C105.619 110.297 105.619 110.928 105.731 111.262C105.842 111.745 106.065 112.079 106.436 112.376C106.77 112.636 107.216 112.785 107.736 112.785C108.255 112.785 108.738 112.636 109.183 112.376C109.629 112.116 109.963 111.745 110.149 111.262C110.334 110.78 110.446 110.112 110.446 109.221V103.578H112.153V114.121H110.594V114.084ZM118.576 112.488L118.799 114.047C118.316 114.158 117.871 114.195 117.499 114.195C116.868 114.195 116.386 114.084 116.051 113.898C115.717 113.676 115.457 113.416 115.309 113.082C115.16 112.747 115.086 112.042 115.086 110.965V104.914H113.824V103.541H115.086V100.942L116.794 99.8652V103.541H118.502V104.914H116.794V111.077C116.794 111.597 116.794 111.931 116.868 112.042C116.942 112.191 117.017 112.302 117.165 112.376C117.314 112.45 117.499 112.488 117.759 112.488C117.945 112.488 118.205 112.488 118.502 112.413L118.576 112.488ZM120.284 101.61V99.5682H121.991V101.61H120.284ZM120.284 114.084V103.541H121.991V114.084H120.284ZM124.627 114.084V103.541H126.186V105.026C126.929 103.875 128.006 103.318 129.416 103.318C130.047 103.318 130.604 103.429 131.124 103.652C131.644 103.875 132.015 104.172 132.275 104.543C132.535 104.914 132.72 105.36 132.795 105.842C132.869 106.176 132.906 106.733 132.906 107.587V114.047H131.161V107.661C131.161 106.919 131.087 106.399 130.975 106.028C130.827 105.657 130.604 105.397 130.27 105.174C129.936 104.951 129.528 104.84 129.082 104.84C128.34 104.84 127.709 105.063 127.189 105.545C126.669 106.028 126.409 106.956 126.409 108.292V114.047H124.701L124.627 114.084ZM135.245 114.975L136.915 115.235C136.99 115.755 137.175 116.163 137.509 116.423C137.955 116.757 138.512 116.905 139.254 116.905C140.034 116.905 140.665 116.757 141.11 116.423C141.556 116.089 141.853 115.643 142.001 115.049C142.076 114.678 142.15 113.935 142.113 112.785C141.37 113.713 140.405 114.158 139.291 114.158C137.881 114.158 136.804 113.638 136.024 112.599C135.245 111.559 134.874 110.297 134.874 108.849C134.874 107.847 135.059 106.919 135.393 106.065C135.727 105.211 136.247 104.58 136.915 104.097C137.584 103.652 138.363 103.392 139.254 103.392C140.442 103.392 141.445 103.912 142.224 104.914V103.615H143.821V112.71C143.821 114.344 143.672 115.495 143.338 116.2C143.004 116.868 142.521 117.425 141.816 117.834C141.11 118.242 140.257 118.428 139.254 118.428C138.029 118.428 137.064 118.131 136.321 117.574C135.579 117.017 135.208 116.163 135.245 115.049V114.975ZM136.656 108.664C136.656 110.037 136.915 111.04 137.435 111.671C137.955 112.302 138.623 112.636 139.44 112.636C140.257 112.636 140.888 112.339 141.445 111.708C141.964 111.077 142.261 110.074 142.261 108.738C142.261 107.402 142.001 106.473 141.445 105.842C140.888 105.174 140.22 104.877 139.44 104.877C138.66 104.877 138.029 105.211 137.472 105.842C136.953 106.473 136.656 107.439 136.656 108.701V108.664ZM162.123 108.998L163.979 109.48C163.608 111.077 162.903 112.265 161.863 113.082C160.861 113.898 159.599 114.344 158.151 114.344C156.703 114.344 155.403 114.01 154.475 113.379C153.51 112.747 152.805 111.819 152.322 110.631C151.839 109.406 151.58 108.144 151.58 106.733C151.58 105.211 151.839 103.912 152.433 102.761C152.99 101.647 153.77 100.793 154.809 100.199C155.849 99.6053 156.963 99.3083 158.225 99.3083C159.636 99.3083 160.824 99.6796 161.752 100.422C162.717 101.165 163.385 102.204 163.756 103.541L161.937 103.986C161.603 102.947 161.158 102.167 160.527 101.684C159.896 101.202 159.116 100.979 158.188 100.979C157.111 100.979 156.22 101.239 155.478 101.796C154.772 102.315 154.253 103.058 153.956 103.949C153.659 104.84 153.51 105.768 153.51 106.733C153.51 107.958 153.696 109.035 154.03 109.963C154.364 110.891 154.921 111.559 155.663 112.042C156.406 112.488 157.185 112.71 158.039 112.71C159.079 112.71 159.97 112.413 160.675 111.782C161.38 111.151 161.863 110.223 162.123 109.035V108.998ZM165.427 108.812C165.427 106.882 165.947 105.434 166.986 104.506C167.877 103.726 168.917 103.355 170.179 103.355C171.59 103.355 172.703 103.838 173.594 104.766C174.485 105.694 174.931 107.03 174.931 108.701C174.931 110.037 174.745 111.114 174.337 111.894C173.929 112.673 173.372 113.267 172.629 113.713C171.887 114.158 171.07 114.344 170.179 114.344C168.768 114.344 167.617 113.861 166.726 112.933C165.835 112.005 165.427 110.631 165.427 108.849V108.812ZM167.209 108.849C167.209 110.186 167.506 111.188 168.063 111.856C168.62 112.525 169.362 112.859 170.216 112.859C171.07 112.859 171.775 112.525 172.369 111.856C172.926 111.188 173.223 110.149 173.223 108.775C173.223 107.476 172.926 106.511 172.369 105.842C171.813 105.174 171.07 104.84 170.216 104.84C169.362 104.84 168.62 105.174 168.063 105.842C167.506 106.511 167.209 107.513 167.209 108.849ZM176.973 114.084V103.541H178.532V105.137C178.94 104.394 179.312 103.912 179.646 103.652C179.98 103.429 180.351 103.281 180.76 103.281C181.354 103.281 181.948 103.466 182.542 103.838L181.91 105.471C181.502 105.211 181.057 105.1 180.648 105.1C180.277 105.1 179.943 105.211 179.646 105.434C179.349 105.657 179.126 105.991 179.015 106.399C178.829 107.03 178.718 107.736 178.718 108.478V113.973H177.01L176.973 114.084ZM182.876 108.812C182.876 106.882 183.395 105.434 184.435 104.506C185.326 103.726 186.365 103.355 187.628 103.355C189.038 103.355 190.152 103.838 191.043 104.766C191.934 105.694 192.38 107.03 192.38 108.701C192.38 110.037 192.194 111.114 191.786 111.894C191.377 112.673 190.82 113.267 190.078 113.713C189.335 114.158 188.519 114.344 187.628 114.344C186.217 114.344 185.066 113.861 184.175 112.933C183.284 112.005 182.839 110.631 182.839 108.849L182.876 108.812ZM184.62 108.849C184.62 110.186 184.917 111.188 185.474 111.856C186.031 112.525 186.774 112.859 187.628 112.859C188.481 112.859 189.187 112.525 189.781 111.856C190.338 111.188 190.635 110.149 190.635 108.775C190.635 107.476 190.338 106.511 189.781 105.842C189.224 105.174 188.481 104.84 187.665 104.84C186.848 104.84 186.068 105.174 185.511 105.842C184.955 106.511 184.658 107.513 184.658 108.849H184.62ZM194.421 114.084V103.541H195.981V105.026C196.723 103.875 197.8 103.318 199.21 103.318C199.842 103.318 200.398 103.429 200.918 103.652C201.438 103.875 201.809 104.172 202.069 104.543C202.329 104.914 202.515 105.36 202.589 105.842C202.663 106.176 202.7 106.733 202.7 107.587V114.047H200.955V107.661C200.955 106.919 200.881 106.399 200.77 106.028C200.621 105.657 200.398 105.397 200.064 105.174C199.73 104.951 199.322 104.84 198.876 104.84C198.134 104.84 197.503 105.063 196.983 105.545C196.463 106.028 196.203 106.956 196.203 108.292V114.047H194.458L194.421 114.084ZM211.981 112.785C211.35 113.341 210.719 113.75 210.125 113.973C209.531 114.195 208.9 114.307 208.232 114.307C207.118 114.307 206.264 114.01 205.67 113.453C205.076 112.896 204.779 112.153 204.779 111.3C204.779 110.78 204.89 110.334 205.113 109.889C205.336 109.48 205.633 109.109 206.004 108.886C206.375 108.627 206.784 108.441 207.229 108.292C207.563 108.218 208.083 108.107 208.751 108.033C210.162 107.847 211.165 107.661 211.833 107.439C211.833 107.179 211.833 107.03 211.833 106.993C211.833 106.288 211.684 105.768 211.35 105.471C210.905 105.063 210.236 104.877 209.383 104.877C208.566 104.877 207.972 105.026 207.563 105.323C207.192 105.62 206.895 106.139 206.71 106.882L205.039 106.622C205.187 105.879 205.447 105.285 205.781 104.803C206.153 104.357 206.635 103.986 207.304 103.726C207.972 103.466 208.751 103.355 209.605 103.355C210.459 103.355 211.202 103.466 211.721 103.689C212.278 103.912 212.65 104.172 212.909 104.469C213.169 104.803 213.355 105.211 213.466 105.694C213.503 105.991 213.541 106.548 213.541 107.327V109.703C213.541 111.374 213.541 112.413 213.652 112.859C213.726 113.304 213.875 113.713 214.06 114.121H212.241C212.056 113.75 211.944 113.304 211.907 112.785H211.981ZM211.833 108.812C211.202 109.072 210.274 109.295 209.011 109.48C208.306 109.592 207.786 109.703 207.489 109.852C207.192 110 206.969 110.186 206.821 110.409C206.672 110.668 206.561 110.928 206.561 111.262C206.561 111.745 206.747 112.116 207.081 112.45C207.415 112.747 207.935 112.933 208.603 112.933C209.271 112.933 209.865 112.785 210.385 112.488C210.905 112.191 211.276 111.782 211.536 111.262C211.721 110.854 211.796 110.26 211.796 109.48V108.849L211.833 108.812ZM216.213 114.084V103.541H217.773V105.137C218.181 104.394 218.552 103.912 218.886 103.652C219.221 103.429 219.592 103.281 220 103.281C220.594 103.281 221.188 103.466 221.782 103.838L221.151 105.471C220.743 105.211 220.297 105.1 219.889 105.1C219.518 105.1 219.183 105.211 218.886 105.434C218.589 105.657 218.367 105.991 218.255 106.399C218.07 107.03 217.958 107.736 217.958 108.478V113.973H216.251L216.213 114.084ZM222.71 118.131L222.525 116.497C222.896 116.608 223.23 116.646 223.527 116.646C223.898 116.646 224.232 116.571 224.455 116.46C224.678 116.311 224.864 116.126 225.012 115.903C225.123 115.717 225.309 115.272 225.532 114.567C225.532 114.455 225.606 114.307 225.68 114.121L221.819 103.578H223.676L225.792 109.666C226.052 110.446 226.311 111.262 226.534 112.079C226.72 111.262 226.98 110.483 227.239 109.703L229.393 103.578H231.1L227.239 114.27C226.831 115.42 226.497 116.2 226.274 116.646C225.977 117.24 225.606 117.648 225.235 117.945C224.826 118.205 224.381 118.353 223.824 118.353C223.49 118.353 223.119 118.279 222.71 118.131ZM237.634 109.443L239.379 109.295C239.453 110.037 239.639 110.631 239.973 111.077C240.27 111.559 240.753 111.931 241.384 112.228C242.015 112.525 242.758 112.673 243.537 112.673C244.243 112.673 244.874 112.562 245.431 112.339C245.987 112.116 246.359 111.819 246.656 111.448C246.916 111.077 247.064 110.668 247.064 110.186C247.064 109.703 246.953 109.332 246.693 108.998C246.433 108.664 246.025 108.367 245.431 108.144C245.059 107.995 244.205 107.773 242.943 107.439C241.644 107.105 240.753 106.808 240.233 106.548C239.565 106.176 239.082 105.731 238.748 105.174C238.414 104.654 238.265 104.023 238.265 103.355C238.265 102.612 238.451 101.944 238.859 101.313C239.268 100.682 239.862 100.199 240.604 99.8652C241.384 99.5311 242.238 99.3826 243.166 99.3826C244.205 99.3826 245.134 99.5682 245.913 99.9023C246.693 100.236 247.324 100.756 247.732 101.424C248.178 102.093 248.4 102.872 248.438 103.726L246.656 103.875C246.544 102.947 246.247 102.278 245.69 101.796C245.134 101.313 244.317 101.09 243.24 101.09C242.164 101.09 241.31 101.313 240.79 101.721C240.27 102.13 240.01 102.65 240.01 103.281C240.01 103.8 240.196 104.246 240.567 104.58C240.938 104.914 241.867 105.248 243.352 105.62C244.874 105.991 245.913 106.288 246.47 106.548C247.287 106.919 247.881 107.439 248.289 108.033C248.66 108.627 248.883 109.332 248.883 110.074C248.883 110.817 248.66 111.559 248.252 112.265C247.807 112.933 247.213 113.49 246.396 113.861C245.579 114.232 244.688 114.418 243.686 114.418C242.423 114.418 241.347 114.232 240.493 113.861C239.639 113.49 238.971 112.896 238.488 112.116C238.006 111.337 237.746 110.483 237.709 109.518L237.634 109.443ZM254.86 112.488L255.083 114.047C254.6 114.158 254.155 114.195 253.784 114.195C253.152 114.195 252.67 114.084 252.336 113.898C252.002 113.676 251.742 113.416 251.593 113.082C251.445 112.747 251.37 112.042 251.37 110.965V104.914H250.108V103.541H251.37V100.942L253.078 99.8652V103.541H254.786V104.914H253.078V111.077C253.078 111.597 253.078 111.931 253.152 112.042C253.227 112.191 253.301 112.302 253.449 112.376C253.598 112.45 253.784 112.488 254.043 112.488C254.229 112.488 254.489 112.488 254.786 112.413L254.86 112.488ZM263.51 110.668L265.292 110.928C265.032 112.005 264.513 112.822 263.733 113.416C262.953 114.01 262.025 114.307 260.837 114.307C259.352 114.307 258.164 113.824 257.31 112.896C256.457 111.968 256.011 110.631 256.011 108.924C256.011 107.216 256.457 105.805 257.31 104.803C258.201 103.838 259.315 103.355 260.726 103.355C262.137 103.355 263.176 103.838 264.067 104.803C264.921 105.768 265.366 107.105 265.366 108.849C265.366 108.961 265.366 109.109 265.366 109.332H257.793C257.867 110.483 258.164 111.374 258.758 111.968C259.315 112.562 260.02 112.896 260.874 112.896C261.505 112.896 262.062 112.71 262.471 112.376C262.916 112.042 263.287 111.485 263.547 110.706L263.51 110.668ZM257.867 107.81H263.547C263.473 106.919 263.25 106.251 262.879 105.805C262.322 105.137 261.617 104.766 260.763 104.766C259.983 104.766 259.315 105.026 258.758 105.582C258.238 106.139 257.942 106.882 257.867 107.773V107.81ZM267.483 114.084V103.541H269.042V105.026C269.784 103.875 270.861 103.318 272.272 103.318C272.903 103.318 273.46 103.429 273.979 103.652C274.499 103.875 274.87 104.172 275.13 104.543C275.39 104.914 275.576 105.36 275.65 105.842C275.724 106.176 275.761 106.733 275.761 107.587V114.047H274.016V107.661C274.016 106.919 273.942 106.399 273.831 106.028C273.682 105.657 273.46 105.397 273.125 105.174C272.791 104.951 272.383 104.84 271.937 104.84C271.195 104.84 270.564 105.063 270.044 105.545C269.524 106.028 269.264 106.956 269.264 108.292V114.047H267.557L267.483 114.084ZM282.11 112.488L282.332 114.047C281.85 114.158 281.404 114.195 281.033 114.195C280.402 114.195 279.919 114.084 279.585 113.898C279.251 113.676 278.991 113.416 278.843 113.082C278.694 112.747 278.62 112.042 278.62 110.965V104.914H277.358V103.541H278.62V100.942L280.328 99.8652V103.541H282.035V104.914H280.328V111.077C280.328 111.597 280.328 111.931 280.402 112.042C280.476 112.191 280.55 112.302 280.699 112.376C280.847 112.45 281.033 112.488 281.293 112.488C281.478 112.488 281.738 112.488 282.035 112.413L282.11 112.488ZM288.866 109.443L290.611 109.295C290.685 110.037 290.871 110.631 291.205 111.077C291.502 111.559 291.985 111.931 292.616 112.228C293.247 112.525 293.989 112.673 294.769 112.673C295.474 112.673 296.106 112.562 296.662 112.339C297.219 112.116 297.591 111.819 297.888 111.448C298.147 111.077 298.296 110.668 298.296 110.186C298.296 109.703 298.185 109.332 297.925 108.998C297.665 108.664 297.256 108.367 296.662 108.144C296.291 107.995 295.437 107.773 294.175 107.439C292.876 107.105 291.985 106.808 291.465 106.548C290.797 106.176 290.314 105.731 289.98 105.174C289.646 104.654 289.497 104.023 289.497 103.355C289.497 102.612 289.683 101.944 290.091 101.313C290.5 100.682 291.094 100.199 291.836 99.8652C292.616 99.5311 293.47 99.3826 294.398 99.3826C295.437 99.3826 296.365 99.5682 297.145 99.9023C297.925 100.236 298.556 100.756 298.964 101.424C299.41 102.093 299.632 102.872 299.67 103.726L297.888 103.875C297.776 102.947 297.479 102.278 296.922 101.796C296.365 101.313 295.549 101.09 294.472 101.09C293.395 101.09 292.542 101.313 292.022 101.721C291.502 102.13 291.242 102.65 291.242 103.281C291.242 103.8 291.428 104.246 291.799 104.58C292.17 104.914 293.098 105.248 294.583 105.62C296.106 105.991 297.145 106.288 297.702 106.548C298.519 106.919 299.113 107.439 299.521 108.033C299.892 108.627 300.115 109.332 300.115 110.074C300.115 110.817 299.892 111.559 299.484 112.265C299.038 112.933 298.444 113.49 297.628 113.861C296.811 114.232 295.92 114.418 294.918 114.418C293.655 114.418 292.579 114.232 291.725 113.861C290.871 113.49 290.203 112.896 289.72 112.116C289.238 111.337 288.978 110.483 288.941 109.518L288.866 109.443ZM302.268 118.131L302.083 116.497C302.454 116.608 302.788 116.646 303.085 116.646C303.456 116.646 303.79 116.571 304.013 116.46C304.236 116.311 304.421 116.126 304.57 115.903C304.681 115.717 304.867 115.272 305.09 114.567C305.09 114.455 305.164 114.307 305.238 114.121L301.377 103.578H303.233L305.35 109.666C305.609 110.446 305.869 111.262 306.092 112.079C306.278 111.262 306.538 110.483 306.797 109.703L308.951 103.578H310.658L306.797 114.27C306.389 115.42 306.055 116.2 305.832 116.646C305.535 117.24 305.164 117.648 304.793 117.945C304.384 118.205 303.939 118.353 303.382 118.353C303.048 118.353 302.677 118.279 302.268 118.131ZM311.475 110.965L313.183 110.668C313.294 111.374 313.554 111.931 314 112.302C314.445 112.673 315.039 112.859 315.819 112.859C316.598 112.859 317.192 112.71 317.601 112.376C317.972 112.042 318.158 111.671 318.158 111.188C318.158 110.78 317.972 110.483 317.638 110.223C317.378 110.074 316.821 109.852 315.856 109.629C314.594 109.295 313.74 109.035 313.22 108.775C312.737 108.515 312.366 108.218 312.106 107.773C311.846 107.364 311.735 106.882 311.735 106.362C311.735 105.879 311.846 105.471 312.032 105.063C312.255 104.654 312.515 104.32 312.886 104.06C313.146 103.875 313.517 103.689 314 103.541C314.445 103.392 314.965 103.318 315.485 103.318C316.264 103.318 316.97 103.429 317.601 103.689C318.195 103.912 318.64 104.246 318.937 104.654C319.234 105.063 319.42 105.62 319.531 106.288L317.861 106.548C317.786 105.991 317.564 105.582 317.192 105.248C316.821 104.951 316.301 104.803 315.633 104.803C314.853 104.803 314.297 104.951 313.925 105.211C313.591 105.471 313.406 105.805 313.406 106.176C313.406 106.399 313.48 106.622 313.628 106.808C313.777 106.993 314 107.142 314.297 107.29C314.482 107.364 314.965 107.513 315.819 107.736C317.044 108.07 317.898 108.33 318.38 108.552C318.863 108.775 319.234 109.072 319.531 109.48C319.791 109.889 319.94 110.409 319.94 111.003C319.94 111.597 319.791 112.153 319.42 112.673C319.086 113.193 318.603 113.601 317.972 113.898C317.341 114.195 316.635 114.344 315.819 114.344C314.482 114.344 313.48 114.047 312.812 113.49C312.106 112.933 311.661 112.079 311.475 110.965ZM325.731 112.488L325.954 114.047C325.471 114.158 325.026 114.195 324.654 114.195C324.023 114.195 323.541 114.084 323.206 113.898C322.872 113.676 322.613 113.416 322.464 113.082C322.316 112.747 322.241 112.042 322.241 110.965V104.914H320.979V103.541H322.241V100.942L323.949 99.8652V103.541H325.657V104.914H323.949V111.077C323.949 111.597 323.949 111.931 324.023 112.042C324.097 112.191 324.172 112.302 324.32 112.376C324.469 112.45 324.654 112.488 324.914 112.488C325.1 112.488 325.36 112.488 325.657 112.413L325.731 112.488ZM334.344 110.668L336.126 110.928C335.866 112.005 335.346 112.822 334.567 113.416C333.824 114.01 332.859 114.307 331.671 114.307C330.186 114.307 328.998 113.824 328.144 112.896C327.29 111.968 326.845 110.631 326.845 108.924C326.845 107.216 327.29 105.805 328.181 104.803C329.072 103.838 330.186 103.355 331.597 103.355C333.007 103.355 334.047 103.838 334.938 104.803C335.792 105.768 336.237 107.105 336.237 108.849C336.237 108.961 336.237 109.109 336.237 109.332H328.664C328.738 110.483 329.035 111.374 329.629 111.968C330.186 112.562 330.891 112.896 331.745 112.896C332.376 112.896 332.933 112.71 333.342 112.376C333.787 112.042 334.158 111.485 334.418 110.706L334.344 110.668ZM328.701 107.81H334.381C334.307 106.919 334.084 106.251 333.713 105.805C333.156 105.137 332.451 104.766 331.597 104.766C330.817 104.766 330.149 105.026 329.592 105.582C329.072 106.139 328.775 106.882 328.701 107.773V107.81ZM338.316 114.084V103.541H339.875V105.026C340.21 104.506 340.618 104.097 341.138 103.8C341.657 103.503 342.251 103.318 342.957 103.318C343.699 103.318 344.33 103.466 344.813 103.8C345.296 104.135 345.63 104.58 345.815 105.174C346.632 103.949 347.672 103.318 348.971 103.318C349.973 103.318 350.753 103.615 351.31 104.172C351.867 104.766 352.127 105.657 352.127 106.845V114.047H350.419V107.439C350.419 106.733 350.345 106.214 350.233 105.917C350.122 105.62 349.936 105.36 349.639 105.174C349.342 104.988 349.008 104.877 348.6 104.877C347.894 104.877 347.3 105.137 346.818 105.62C346.335 106.102 346.112 106.919 346.112 107.995V114.121H344.405V107.29C344.405 106.511 344.256 105.917 343.996 105.508C343.699 105.1 343.254 104.914 342.623 104.914C342.14 104.914 341.695 105.063 341.286 105.323C340.878 105.582 340.581 105.954 340.395 106.473C340.21 106.993 340.135 107.699 340.135 108.664V114.121H338.428L338.316 114.084Z" fill="#231F20"/>
</g>
<defs>
<linearGradient id="paint0_linear_5406_16957" x1="164.53" y1="88.2082" x2="164.53" y2="48.5221" gradientUnits="userSpaceOnUse">
<stop stop-color="#2E3192"/>
<stop offset="1" stop-color="#0095DA"/>
</linearGradient>
<clipPath id="clip0_5406_16957">
<rect width="557.76" height="118.353" fill="white"/>
</clipPath>
</defs>
</svg>
