
<svg width="1467" height="665" viewBox="0 0 1467 665" fill="none" xmlns="http://www.w3.org/2000/svg">
<g clip-path="url(#clip0_540_6392)">
<g opacity="0.4">
<g filter="url(#filter0_i_540_6392)">
<ellipse cx="959.648" cy="873.923" rx="816.313" ry="1056.43" transform="rotate(75 959.648 873.923)" fill="url(#paint0_linear_540_6392)" fill-opacity="0.7"/>
</g>
<path d="M1170.78 1661.88C607.372 1812.85 56.3279 1582.26 -60.2449 1147.2C-176.818 712.146 185.106 236.93 748.516 85.9647C1311.93 -65.0003 1862.97 165.587 1979.54 600.643C2096.11 1035.7 1734.19 1510.92 1170.78 1661.88Z" stroke="url(#paint1_linear_540_6392)" stroke-opacity="0.5" stroke-width="1.11889"/>
</g>
<g opacity="0.3">
<g filter="url(#filter1_i_540_6392)">
<ellipse cx="961.667" cy="1156.57" rx="861.391" ry="1056.43" transform="rotate(75 961.667 1156.57)" fill="url(#paint2_linear_540_6392)" fill-opacity="0.7"/>
</g>
<path d="M1184.47 1988.07C621.087 2139.02 64.7963 1888.97 -58.2263 1429.85C-181.249 970.721 175.488 476.025 738.867 325.068C1302.25 174.111 1858.54 424.162 1981.56 883.288C2104.58 1342.42 1747.85 1837.11 1184.47 1988.07Z" stroke="url(#paint3_linear_540_6392)" stroke-opacity="0.5" stroke-width="1.11889"/>
</g>
<g opacity="0.3">
<g filter="url(#filter2_i_540_6392)">
<ellipse cx="899.926" cy="1009.67" rx="899.926" ry="1009.67" transform="matrix(0.100319 0.994955 -0.985256 0.171085 1812.34 330.095)" fill="url(#paint4_linear_540_6392)" fill-opacity="0.7"/>
</g>
<path d="M998.054 2293.05C448.891 2388.41 -36.5833 2065.01 -86.4068 1570.87C-136.23 1076.72 268.443 598.752 817.606 503.392C1366.77 408.032 1852.24 731.435 1902.07 1225.58C1951.89 1719.72 1547.22 2197.69 998.054 2293.05Z" stroke="url(#paint5_linear_540_6392)" stroke-opacity="0.5" stroke-width="1.11889"/>
</g>
</g>
<defs>
<filter id="filter0_i_540_6392" x="-82.6357" y="39.1353" width="2084.57" height="1676.29" filterUnits="userSpaceOnUse" color-interpolation-filters="sRGB">
<feFlood flood-opacity="0" result="BackgroundImageFix"/>
<feBlend mode="normal" in="SourceGraphic" in2="BackgroundImageFix" result="shape"/>
<feColorMatrix in="SourceAlpha" type="matrix" values="0 0 0 0 0 0 0 0 0 0 0 0 0 0 0 0 0 0 127 0" result="hardAlpha"/>
<feOffset dy="6.71336"/>
<feGaussianBlur stdDeviation="5.59447"/>
<feComposite in2="hardAlpha" operator="arithmetic" k2="-1" k3="1"/>
<feColorMatrix type="matrix" values="0 0 0 0 1 0 0 0 0 1 0 0 0 0 1 0 0 0 0.01 0"/>
<feBlend mode="normal" in2="shape" result="effect1_innerShadow_540_6392"/>
</filter>
<filter id="filter1_i_540_6392" x="-83.0576" y="280.516" width="2089.45" height="1758.82" filterUnits="userSpaceOnUse" color-interpolation-filters="sRGB">
<feFlood flood-opacity="0" result="BackgroundImageFix"/>
<feBlend mode="normal" in="SourceGraphic" in2="BackgroundImageFix" result="shape"/>
<feColorMatrix in="SourceAlpha" type="matrix" values="0 0 0 0 0 0 0 0 0 0 0 0 0 0 0 0 0 0 127 0" result="hardAlpha"/>
<feOffset dy="6.71336"/>
<feGaussianBlur stdDeviation="5.59447"/>
<feComposite in2="hardAlpha" operator="arithmetic" k2="-1" k3="1"/>
<feColorMatrix type="matrix" values="0 0 0 0 1 0 0 0 0 1 0 0 0 0 1 0 0 0 0.01 0"/>
<feBlend mode="normal" in2="shape" result="effect1_innerShadow_540_6392"/>
</filter>
<filter id="filter2_i_540_6392" x="-91.1104" y="486.156" width="1997.88" height="1830.85" filterUnits="userSpaceOnUse" color-interpolation-filters="sRGB">
<feFlood flood-opacity="0" result="BackgroundImageFix"/>
<feBlend mode="normal" in="SourceGraphic" in2="BackgroundImageFix" result="shape"/>
<feColorMatrix in="SourceAlpha" type="matrix" values="0 0 0 0 0 0 0 0 0 0 0 0 0 0 0 0 0 0 127 0" result="hardAlpha"/>
<feOffset dy="6.71337"/>
<feGaussianBlur stdDeviation="5.59447"/>
<feComposite in2="hardAlpha" operator="arithmetic" k2="-1" k3="1"/>
<feColorMatrix type="matrix" values="0 0 0 0 1 0 0 0 0 1 0 0 0 0 1 0 0 0 0.01 0"/>
<feBlend mode="normal" in2="shape" result="effect1_innerShadow_540_6392"/>
</filter>
<linearGradient id="paint0_linear_540_6392" x1="428.021" y1="-896.915" x2="1677.01" y2="-353.089" gradientUnits="userSpaceOnUse">
<stop offset="0.0351827" stop-color="#D9D9D9" stop-opacity="0.27"/>
<stop offset="1" stop-color="white" stop-opacity="0"/>
</linearGradient>
<linearGradient id="paint1_linear_540_6392" x1="1980.08" y1="600.498" x2="1905.15" y2="1297.81" gradientUnits="userSpaceOnUse">
<stop stop-color="white" stop-opacity="0.49"/>
<stop offset="1" stop-color="white" stop-opacity="0"/>
</linearGradient>
<linearGradient id="paint2_linear_540_6392" x1="400.683" y1="-614.269" x2="1695.23" y2="-19.4813" gradientUnits="userSpaceOnUse">
<stop offset="0.0351827" stop-color="#D9D9D9" stop-opacity="0.27"/>
<stop offset="1" stop-color="white" stop-opacity="0"/>
</linearGradient>
<linearGradient id="paint3_linear_540_6392" x1="1982.1" y1="883.144" x2="1890.16" y2="1612.02" gradientUnits="userSpaceOnUse">
<stop stop-color="white" stop-opacity="0.49"/>
<stop offset="1" stop-color="white" stop-opacity="0"/>
</linearGradient>
<linearGradient id="paint4_linear_540_6392" x1="313.846" y1="-682.788" x2="1621.87" y2="-25.8476" gradientUnits="userSpaceOnUse">
<stop offset="0.0351827" stop-color="#D9D9D9" stop-opacity="0.27"/>
<stop offset="1" stop-color="white" stop-opacity="0"/>
</linearGradient>
<linearGradient id="paint5_linear_540_6392" x1="1902.62" y1="1225.48" x2="1704.12" y2="1975.69" gradientUnits="userSpaceOnUse">
<stop stop-color="white" stop-opacity="0.49"/>
<stop offset="1" stop-color="white" stop-opacity="0"/>
</linearGradient>
<clipPath id="clip0_540_6392">
<rect width="1467" height="665" fill="white"/>
</clipPath>
</defs>
</svg>
