<svg version="1.2" xmlns="http://www.w3.org/2000/svg" viewBox="0 0 178 64" width="178" height="64">
	<title>indiamedicaldevice2020-svg</title>
	<defs>
		<clipPath clipPathUnits="userSpaceOnUse" id="cp1">
			<path d="m-11-18h200v100h-200z"/>
		</clipPath>
	</defs>
	<style>
		.s0 { fill: #016db4 } 
		.s1 { fill: #ffffff } 
		.s2 { fill: #f27436 } 
		.s3 { fill: #373435 } 
	</style>
	<g id="Clip-Path" clip-path="url(#cp1)">
		<g id="Layer">
			<path id="Layer" fill-rule="evenodd" class="s0" d="m3 59.9v-31.6h12.7q1.5 0 3 0.3 1.5 0.3 2.9 0.8 1.4 0.5 2.6 1.3 1.2 0.8 2.2 1.9 1 1 1.8 2.3 0.8 1.2 1.3 2.6 0.6 1.5 0.8 3.1 0.3 1.6 0.3 3.2 0 1.7-0.3 3.3-0.2 1.6-0.7 3.1-0.4 1.4-1.1 2.7-0.7 1.3-1.7 2.4-0.9 1.1-2.1 2-1.1 0.8-2.4 1.4-1.3 0.6-2.8 0.9-1.4 0.3-2.9 0.3h-6.8zm9.7-22.8v14.1h2.7c0.8 0 1.5-0.1 2.2-0.3 0.6-0.2 1.2-0.6 1.7-1.2 0.6-0.8 0.9-1.8 1.1-2.8 0.2-1.1 0.2-2.2 0.2-3.1q0-0.8-0.1-1.7 0-0.9-0.2-1.8-0.2-0.5-0.4-0.9-0.2-0.5-0.5-0.9-0.4-0.4-0.7-0.6-0.4-0.2-0.9-0.4-0.6-0.2-1.4-0.3-0.7-0.1-1.5-0.1z"/>
			<path id="Layer" fill-rule="evenodd" class="s0" d="m72 42.9l2.2-7.3 2.3-7.3h5.1 5.2l-5.4 15.8-5.4 15.8h-4.1-4.2l-5.4-15.8-5.3-15.8h5.2 5.2l2.3 7.3z"/>
			<path id="Layer" fill-rule="evenodd" class="s0" d="m87.1 59.9v-15.8-15.8h4.9 4.9v15.8 15.8h-4.9z"/>
			<path id="Layer" fill-rule="evenodd" class="s0" d="m144.9 37.2v0.9 0.9h7.1 7.1v4.5 4.4h-7.1-7.1v1.6 1.5h7.1 7.1v4.4 4.5h-11.9-12v-15.8-15.8h12 11.9v4.5 4.4h-7.1z"/>
			<path id="Layer" fill-rule="evenodd" class="s0" d="m41.9 37.2v0.9 0.9h7.1 7.1v4.5 4.4h-7.1-7.1v1.6 1.5h7.1 7.1v4.4 4.5h-11.9-12v-15.8-15.8h12 11.9v4.5 4.4h-7.1z"/>
			<path id="Layer" fill-rule="evenodd" class="s0" d="m116.6 51c1.2-0.1 2.4-0.4 3.4-1 1-0.6 1.8-1.5 2.3-2.5h5.8 5.8c-0.8 4.1-3 7.7-6 10.2-3.1 2.6-7 4.2-11.3 4.2v-5.5z"/>
			<path id="Layer" fill-rule="evenodd" class="s0" d="m109.5 44.5c0.1 1.7 0.9 3.2 2 4.4 1.1 1.1 2.6 1.9 4.3 2v5.5 5.5c-4.8-0.1-9-2.1-12.1-5.3-3.1-3.1-5-7.4-5.1-12.1h5.5z"/>
			<path id="Layer" fill-rule="evenodd" class="s0" d="m115.8 37.3c-1.7 0.1-3.2 0.9-4.3 2-1.1 1.2-1.9 2.7-2 4.4h-5.4-5.5c0.1-4.8 2.1-9 5.2-12.1 3.1-3.2 7.4-5.1 12.1-5.3v5.5z"/>
			<path id="Layer" fill-rule="evenodd" class="s0" d="m116.7 26.3c4.2 0.1 8.2 1.7 11.2 4.2 3 2.6 5.2 6.2 6 10.3h-5.8-5.8c-0.5-1-1.3-1.9-2.3-2.5-1-0.6-2.1-1-3.4-1l0.1-5.5z"/>
			<path id="Layer" fill-rule="evenodd" class="s1" d="m123.8 35.3l-0.1-0.1c0-0.1 0.3-0.6 0.6-1.1 0.3-0.5 0.6-1 0.7-1.2 0.6-1.1 0.8-1.3 0.9-1.3 0.2 0 0.2 0.1 0.4-0.3q0.1-0.1 0.1-0.2 0.1-0.2 0.2-0.3 0.2 0 0.3 0.1 0.1 0.1 0.2 0.2l-0.1 0.2-0.1 0.2q0 0-0.1 0.2 0 0.1-0.1 0.2 0 0.1 0 0.2 0.1 0.1 0 0.3 0 0.2-0.1 0.3-0.1 0.2-0.2 0.4l-0.1 0.1v0.1q0.1 0.1 0.1 0.1 0 0 0 0.1c0.5 0.2 0.5 0.5 0.5 0.8 0 0.3-0.1 0.6-0.1 0.6 0 0.3 0.2 0.5 0.2 0.9 0.1 0.4-0.1 1-0.7 1.8l0.1 0.1v0.1c0 0.2 0.1 0.4 0.2 0.6 0.1 0.3 0.1 0.5 0.2 0.6h1.1l0.1 0.1 0.1 0.1c0 0.2 0 0.3-0.1 0.3 0 0.1-0.1 0.1-0.3 0.1-0.1 0.1-0.1 0.1-0.1 0.1 0 0 0 0-0.1 0.1-0.2 0.1-1.2 0.1-2.2 0.1-1 0-2.1 0-2.4 0-0.3 0-0.4 0-0.5-0.1 0 0 0-0.1-0.2-0.2-0.2 0-0.3 0-0.3-0.1-0.1 0-0.1-0.1 0-0.4 0.1-0.1 0.6-0.1 1-0.1 0.4 0 0.9 0 1.2 0q0.1-0.2 0.1-0.4 0.1-0.2 0.2-0.4c0-0.1 0-0.1 0-0.1 0 0 0 0-0.2-0.1-0.2-0.1-0.2-0.1-0.3-0.1 0 0-0.1-0.1-0.4-0.2-0.2-0.2-0.3-0.3-0.3-0.4-0.1-0.1-0.1-0.2-0.1-0.4q-0.1 0-0.1-0.1 0 0 0 0c-0.1 0-0.1 0-0.1 0 0 0 0-0.1 0-0.1l-0.4-0.2q0-0.2 0-0.3 0.1-0.1 0.2-0.1l0.2 0.1c0.1 0 0.4 0.2 0.7 0.4 0.4 0.2 0.7 0.4 0.8 0.4 0 0.2 0 0.3 0 0.3 0 0.1 0 0.1 0.2 0.1 0.8 0.2 1.4-0.3 1.6-0.8 0.3-0.6 0.2-1.3-0.1-1.3l-0.3-0.1h-0.2l-0.1-0.1-0.2-0.1q0 0.1-0.1 0.1 0 0 0 0l-0.2 0.4-0.2 0.3q-0.2 0-0.5-0.1-0.2-0.2-0.3-0.3zm2.4-0.3q0.2-0.1 0.3-0.2c0.3-0.8 0-1.1-0.4-1.2-0.5-0.1-1 0.2-0.9 0.8q0 0.3 0.2 0.4 0.2 0.2 0.4 0.2 0.2 0.1 0.4 0zm-2.3 0.2c0.1-0.1 0.4-0.7 0.7-1.2 0.4-0.6 0.7-1.2 0.9-1.5 0.1-0.2 0.1-0.3 0.2-0.4 0.1-0.2 0.3-0.2 0.5-0.3l0.2-0.2 0.1-0.3 0.1-0.2 0.1-0.1c-0.1 0-0.1 0-0.1 0 0 0 0 0-0.1 0.1q0 0 0 0-0.1 0.1-0.1 0.1c-0.2 0.4-0.3 0.5-0.4 0.5 0 0-0.1 0-0.3 0.1 0 0.1-0.5 0.8-1 1.6-0.4 0.8-0.9 1.6-0.9 1.8zm1.2 2.7q0.3 0 0.6-0.1 0.4-0.1 0.6-0.5 0.3-0.3 0.5-0.6c0-0.2 0.1-0.6 0.1-0.9 0-0.4-0.1-0.7-0.3-0.7q0.2 0.9 0.1 1.4-0.2 0.6-0.8 1-0.3 0.2-0.6 0.3-0.4 0-0.8 0c-0.3-0.1-0.5-0.2-0.6-0.3-0.2-0.1-0.3-0.2-0.5-0.3q0.1 0.3 0.4 0.4 0.3 0.2 0.6 0.3 0.4 0.1 0.7 0zm1.4-3.8c0.1 0.3 0 0.6-0.3 0.7-0.4 0.1-0.7-0.1-0.8-0.4-0.1-0.3 0.1-0.6 0.4-0.7 0.5-0.1 0.7 0.2 0.7 0.4zm-2.1 2q-0.3-0.1-0.4-0.2c-0.2-0.1-0.3-0.2-0.5-0.3-0.1-0.1-0.2-0.2-0.1-0.3 0-0.1 0.2 0 0.3 0 0.2 0.1 0.4 0.2 0.5 0.3q0.1 0.1 0.1 0.1 0.1 0.1 0.2 0.1 0.2 0.1 0.2 0.1 0.1 0.1 0.1 0.3-0.2 0-0.4-0.1zm-0.3 3.2c1 0 2-0.1 2.3-0.1l0.5 0.1h0.6q0.1 0 0.2-0.1 0 0 0.1 0l-0.1-0.1c-0.1 0-1.4-0.1-2.7-0.1-1.4 0-2.7 0-2.8 0.1q-0.1 0-0.1 0 0 0 0 0.1c0.1 0.1 1.1 0.1 2 0.1z"/>
			<path id="Layer" fill-rule="evenodd" class="s1" d="m108.4 35.9v2.8h-0.3c-0.2 0-0.3-0.4-0.3-1-0.1-0.6-0.1-1.3-0.1-1.8zm0-0.1h-0.7v-0.7h0.7zm-4.2-0.5q0-0.1 0.2-0.1c0.3 0.1 0.2 0.2 0.3 0.2 0 0 0.2 0 0.8 0q0.2 0 0.4 0 0.1 0.1 0.2 0.2c0.1 0.2-0.1 0.3-0.3 0.3-0.3 0-0.6 0-0.7 0q-0.4 0-0.6-0.1-0.2 0-0.4-0.2 0-0.2 0.1-0.3zm0.4-0.4q0.1-0.1 0.4-0.1c0.5 0 0.9 0.1 1.3 0.2 0.4 0.1 0.8 0.2 1.2 0.2v0.6q-0.3 0.1-0.7 0.1-0.3 0-0.6 0c0-0.3-0.1-0.5-0.2-0.5-0.1 0-0.3 0-0.6 0q-0.2 0-0.4 0-0.1 0-0.3-0.1 0 0-0.2-0.1-0.1 0-0.2-0.1 0 0 0 0 0 0 0 0 0 0 0 0 0 0 0 0 0.1-0.1 0.3-0.2zm-1.6 1.1h4.5v0.5h-4.5q-0.1 0-0.2-0.1-0.1-0.1-0.1-0.2 0-0.1 0.1-0.2 0.1 0 0.2 0zm0.4 0.6h4.1v0.3h-4q-0.1 0-0.1-0.1 0 0 0-0.1zm-0.2-0.9h0.8q0 0 0.1 0 0 0 0 0.1v0.1h-1v-0.1q0-0.1 0-0.1 0 0 0.1 0zm0.4-1.3q0.2 0.1 0.4 0.2 0.1 0.2 0.2 0.4-0.1 0.3-0.2 0.4-0.2 0.2-0.4 0.2-0.3 0-0.4-0.2-0.2-0.1-0.2-0.4 0-0.2 0.2-0.4 0.1-0.1 0.4-0.2zm7.2-2.1h0.3c0.1 0 0.2 0.7 0.3 1.4 0 0.8 0 1.6 0 1.9 0 0.3 0 1.1 0 1.8-0.1 0.7-0.2 1.4-0.4 1.4h-0.2c0-1.1 0-5.4 0-6.5zm0.8 2.9h1q0.1 0 0.2 0.1 0.1 0.1 0.1 0.3 0 0.1-0.1 0.2-0.1 0.1-0.2 0.1h-1zm-0.1 0.8h1.4q0.1 0 0.2 0.1 0.1 0 0.1 0.1 0 0.2-0.1 0.2-0.1 0.1-0.2 0.1h-1.4zm1 0.7q0 0.1 0 0.1-0.1 0.1-0.1 0.1h-0.8v-0.3h0.9zm-3.9-4.9h2.1v7.4h-2.1zm-0.2 3.3h-0.7c0-0.5 0-1.2 0.1-1.7 0-0.6 0.1-1.1 0.2-1.1h0.4z"/>
			<path id="Layer" fill-rule="evenodd" class="s1" d="m105 53.2c-0.4-0.4-0.8-0.8-1.2-1.4q-0.3-0.5-0.3-1 0-0.5 0.3-1l0.3-0.5 0.4-0.5c0.1-0.2 0.1-0.2 0.1-0.3 0-0.1 0-0.2 0.1-0.3 0.6 0 1 0.5 1.2 1 0.1 0.5 0.1 1-0.3 1q0 0 0 0-0.1 0-0.1 0h-0.4l-0.4-0.1c-0.2 0.1-0.2 0-0.2 0q0 0-0.1 0.1c-0.5 0.6 0 1.4 0.8 2.2 0.7 0.7 1.7 1.3 2 1.3 0.3 0 0.7-0.3 1.1-0.6 0.4-0.3 0.8-0.6 1-0.8 0.2-0.2 0.5-0.5 0.7-0.9 0.2-0.4 0.3-0.9 0-1.3-0.2-0.1-0.4 0-0.7 0-0.2 0.1-0.5 0.1-0.6 0.1h-0.1-0.1c-0.1-0.2-0.1-0.7 0.1-1.1 0.2-0.5 0.5-0.9 1-0.9 0.2 0.2 0.1 0.2 0.2 0.3 0 0.1 0 0.2 0.3 0.5v0.1l0.1 0.1q0 0 0 0 0 0 0 0l0.2 0.3 0.2 0.3q0.3 0.5 0.3 0.9-0.1 0.5-0.3 1c-0.3 0.4-0.7 0.9-1.2 1.4-0.5 0.4-1 0.9-1.5 1.1-0.1 0.2-0.2 0.8-0.2 1.4 0 0.5 0.2 1.1 0.7 1.4 0.5 0.4 1 0.3 1.3 0 0.4-0.2 0.6-0.6 0.8-0.9-0.1-0.3-0.3-0.6-0.4-0.9-0.1-0.2-0.2-0.6 0.1-1.1 0.3-0.7 1-0.9 1.7-0.7 0.6 0.2 1.1 0.8 0.9 1.7-0.1 0.5-0.4 0.7-0.7 0.9-0.2 0.1-0.5 0.1-0.7 0.3-0.1 0-0.2 0.2-0.3 0.4-0.1 0.1-0.1 0.3-0.3 0.4-0.7 0.8-1.5 1.1-2.3 0.9-0.7-0.1-1.4-0.7-1.5-1.6-0.1-0.2-0.1-0.7-0.1-1.1 0-0.4-0.1-0.8-0.3-1-0.6-0.5-1.1-0.8-1.6-1.1zm-0.5-3.1q0 0 0 0 0 0 0 0zm1 0.2c-0.1 0-0.2 0 0.1-0.1 0.1 0.1 0 0.1-0.1 0.1zm5.4 4.7c0.1 0.2 0.4 0.4 0.7 0.3 0.4-0.1 0.5-0.5 0.4-0.7-0.1-0.3-0.4-0.6-0.8-0.4-0.4 0.2-0.4 0.5-0.3 0.8z"/>
			<path id="Layer" fill-rule="evenodd" class="s1" d="m119.8 54.8l1.1-0.8 1.2-0.7c0.8-0.5 1.2-0.5 1.9-0.7 0.8-0.2 1.8-0.6 3.6-1.8q0.2 0.2 0.4 0.4 0.1 0.3 0.3 0.5c-1.9 1.3-2.6 2-3.1 2.6-0.4 0.6-0.6 1-1.3 1.5l-1.2 0.8-1.2 0.8zm1.9 1.5q0.1 0 0.1 0l2.3-1.5q0 0 0-0.1 0-0.1 0-0.1l-0.3-0.6-0.4-0.5q0-0.1-0.1-0.1-0.1 0-0.1 0.1l-1.2 0.7-1.1 0.7q0 0.1 0 0.2-0.1 0 0 0.1l0.3 0.5 0.4 0.5q0 0.1 0.1 0.1zm-0.6-1l0.2-0.1 0.1-0.1h0.1v0.1l-0.1 0.1h-0.1-0.1zm0.6 0.2v-0.1l0.1 0.1 0.1 0.1v0.1h-0.1l-0.1-0.1zm-0.1 0.5v-0.1-0.1h0.1l0.1-0.1h0.1zm0.5-0.4l0.1 0.1h-0.1v-0.1zm0.1-0.7v-0.1-0.1l0.1 0.2 0.1 0.1v0.1l-0.1-0.1zm-0.4 0.2l0.4-0.3v0.1l-0.1 0.1-0.2 0.1zm0 0h0.1l0.1 0.1v0.1 0.1l-0.1-0.2zm0.5 0.2v-0.1h0.1l0.1 0.2 0.1 0.1h-0.1l-0.1-0.1zm-0.1 0.4v-0.1h0.1l0.1-0.1h0.1l-0.2 0.1zm-0.2-0.3h0.1l0.1 0.1v0.1 0.1l-0.1-0.1zm0.4-0.8v0.1l-0.1 0.1v-0.1zm0.4 0.2v-0.1h0.1l0.1-0.1h0.1l-0.1 0.1zm-0.2 0l-0.1-0.1v-0.2l0.1 0.1 0.1 0.1v0.1zm0.4-0.2l0.1 0.2 0.1 0.1h-0.1l-0.2-0.2 0.1-0.1zm-0.2 0l-0.1-0.2v-0.1l0.1 0.1 0.1 0.1v0.1zm-0.5-0.1l0.2-0.1 0.1-0.1v0.1l-0.1 0.1h-0.1-0.1zm0.5 0.7v-0.1l0.2-0.2h0.1zm0.4-0.6h-0.1v-0.1l0.2-0.1 0.1-0.1v0.1l-0.1 0.1zm0 0l0.1 0.1v0.1 0.1l-0.1-0.1-0.1-0.2h0.1zm-0.2 0v-0.2l-0.1-0.1h0.1l0.1 0.2v0.1zm-0.2-0.3l0.2-0.1 0.1-0.2v0.1 0.1h-0.1l-0.1 0.1zm0.4 0.6l0.1-0.1 0.2-0.1h0.1l-0.2 0.1zm-1.9 0.5v-0.1h0.1l0.1 0.2v0.1h-0.1v-0.1zm2.9-1.1q0.2 0 0.4-0.1 0.2-0.2 0.2-0.4 0.1-0.2-0.1-0.4-0.1-0.2-0.3-0.2-0.2-0.1-0.4 0.1-0.2 0.1-0.3 0.3 0 0.2 0.1 0.4 0.2 0.2 0.4 0.3zm-0.2-0.4q0-0.1 0-0.2 0-0.2 0.1-0.2 0.1-0.1 0.2-0.1 0.2 0.1 0.2 0.2 0.1 0.1 0.1 0.2-0.1 0.1-0.2 0.2-0.1 0-0.2 0-0.1 0-0.2-0.1zm3.6-2.9l0.6-0.4 0.5-0.3q0.1-0.1 0.3-0.1 0.2 0 0.3 0.2 0.1 0.1 0 0.3 0 0.2-0.2 0.3l-1 0.7zm0.6 0.4l0.4-0.3 0.4-0.3q0.1 0 0.1-0.1 0.1 0 0.1-0.1h-0.1-0.1q0 0 0 0.1 0 0 0 0l-0.4 0.3-0.4 0.3zm-9.6 6c-0.3-0.3-0.3-0.7-0.3-1.1 0.1-0.4 0.3-0.8 0.7-1l0.3-0.2 1.7 2.6-0.3 0.2c-0.3 0.2-0.8 0.3-1.1 0.2-0.4-0.1-0.8-0.3-1-0.7z"/>
			<path id="Layer" fill-rule="evenodd" class="s2" d="m90.2 42.6l-0.2 0.9-0.1 1h-0.6-0.7l-0.5 2.5-0.6 2.5-0.5-2.5-0.5-2.5h-0.7-0.8l-0.3-1.6-0.3-1.6-0.4 5.6-0.5 5.6-0.7-4-0.8-4h-0.6-0.7l-0.3-1-0.3-0.9-0.4 2.5-0.3 2.4-1-2.1-1.1-2.1-0.7 1.7-0.7 1.6-1.7-3.7-1.7-3.7-1.4 3.6-1.3 3.7-0.9-2.8-0.8-2.7-1.4 3.6-1.3 3.7-0.7-2.4-0.6-2.4-0.7 2.7-0.8 2.6-0.8-2.2-0.9-2.1h-0.7-0.8l-0.3-1.6-0.3-1.6-0.4 5.6-0.5 5.6-0.8-4-0.7-4c-2.7 0-5 0-7.3 0-2.3 0-4.5 0.1-7.2 0.1v-0.5-0.4c2.7 0 5.1 0 7.4 0 2.4 0 4.7-0.1 7.4-0.1h0.2 0.2l0.2 1.4 0.3 1.3 0.4-5.6 0.5-5.6 0.8 4.3 0.8 4.3 0.7-0.1h0.7l0.5 1.3 0.5 1.3 0.8-2.9 0.9-2.9 0.6 2.5 0.7 2.6 1.3-3.6 1.4-3.5 0.8 2.7 0.8 2.8 1.3-3.5 1.3-3.4 1.7 3.8 1.8 3.8 0.7-1.6 0.7-1.7 0.8 1.7 0.8 1.7 0.5-2.9 0.4-2.9 0.7 2.4 0.8 2.3h0.7 0.7l0.2 1.4 0.3 1.3 0.4-5.6 0.5-5.6 0.8 4.3 0.8 4.3 0.7-0.1h0.8l0.2 1 0.2 0.9 0.2-0.9 0.2-1h0.6 0.6l0.3-2.2 0.3-2.2 0.8 2.2 0.8 2.2h2.8 2.7v0.4 0.5h-3-3.1l-0.3-1z"/>
			<path id="Layer" fill-rule="evenodd" class="s2" d="m3 27.2h1.6 1.6v-9.7-9.7h-1.6-1.6v9.7z"/>
			<path id="Layer" fill-rule="evenodd" class="s2" d="m20.1 27.2h1.5 1.5v-9.7-9.7h-1.4-1.4v7.4 7.3l-4.6-7.3-4.5-7.4h-1.9-1.8v9.7 9.7h1.4 1.4v-7.7-7.6l4.9 7.6z"/>
			<path id="Layer" fill-rule="evenodd" class="s2" d="m24.3 7.8h7.4q1 0 1.9 0.2 0.9 0.1 1.8 0.5 0.8 0.3 1.5 0.7 0.7 0.5 1.3 1.1 0.6 0.7 1.1 1.4 0.4 0.7 0.7 1.6 0.4 0.9 0.6 1.9 0.1 1.1 0.1 2.1 0 1-0.1 2-0.2 1.1-0.5 2.1-0.3 0.8-0.7 1.6-0.4 0.8-1 1.5-0.5 0.6-1.2 1.1-0.7 0.5-1.4 0.9-0.8 0.3-1.7 0.5-0.8 0.2-1.7 0.2h-8.1zm9.8 16.6c0.8-0.3 1.5-0.8 2-1.6 0.6-0.7 0.9-1.7 1.1-2.7 0.2-0.9 0.3-1.9 0.3-2.9q0-0.8-0.1-1.5 0-0.8-0.2-1.6-0.2-0.6-0.5-1.2-0.2-0.6-0.7-1.1-0.4-0.4-0.9-0.8-0.5-0.3-1.1-0.5-0.7-0.2-1.4-0.3-0.7-0.1-1.5-0.1h-3.8v14.7h4.2c0.9 0 1.8-0.1 2.6-0.4z"/>
			<path id="Layer" fill-rule="evenodd" class="s2" d="m41.5 27.2h1.6 1.5v-9.7-9.7h-1.5-1.6v9.7z"/>
			<path id="Layer" fill-rule="evenodd" class="s2" d="m59.5 25l-0.6-2.1h-8.5l-0.8 2.1-0.7 2.2h-3.3l3.5-9.7 3.5-9.7h4.1l6.9 19.4h-3.4zm-5.4-13.9l-1.5 4.7-1.6 4.7h6.9l-1.4-4.7-1.5-4.7z"/>
			<path id="Layer" fill-rule="evenodd" class="s0" d="m78.5 19.5l-1 3.8-1.1 3.9h-2.4-2.4l-1.1-3.9-1-3.8v3.8 3.9h-2.5-2.5v-9.8-9.7h3.4 3.5l1.3 5.5 1.4 5.4 1.3-5.4 1.4-5.5h3.4 3.3v9.7 9.8h-2.5-2.5v-3.9z"/>
			<path id="Layer" fill-rule="evenodd" class="s0" d="m89.5 12.3v1.2 1.2h4.4 4.4v2.3 2.3h-4.4-4.4v1.6 1.6h4.4 4.4v2.3 2.4h-7-6.9v-9.8-9.7h6.9 7v2.3 2.3h-4.4z"/>
			<path id="Layer" fill-rule="evenodd" class="s0" d="m99.3 27.2v-19.5h7.8q0.9 0 1.8 0.1 0.9 0.2 1.8 0.5 0.8 0.4 1.6 0.8 0.7 0.5 1.3 1.2 0.7 0.6 1.1 1.4 0.5 0.7 0.8 1.6 0.4 0.9 0.5 1.9 0.2 1 0.2 2 0 1-0.1 2.1-0.2 1-0.5 1.9-0.3 0.9-0.7 1.7-0.4 0.8-1 1.5-0.4 0.4-0.8 0.7-0.4 0.4-0.8 0.7-1.1 0.2-2.1 0.6-1 0.3-2 0.8-0.1 0-0.3 0-0.1 0-0.3 0zm5.2-15v10.5h2.4c0.6 0 1.1-0.1 1.7-0.3 0.5-0.2 1-0.5 1.3-1 0.4-0.5 0.7-1.3 0.8-2 0.1-0.7 0.2-1.5 0.2-2.2q0-0.6-0.1-1.2 0-0.6-0.2-1.2-0.1-0.4-0.2-0.8-0.2-0.4-0.5-0.7-0.2-0.3-0.6-0.5-0.3-0.2-0.6-0.3-0.5-0.1-1.1-0.2-0.5-0.1-1-0.1z"/>
			<path id="Layer" fill-rule="evenodd" class="s0" d="m116.8 25.4v-8.9-8.8h2.6 2.7v9.3 9.3q-1.3-0.4-2.6-0.6-1.3-0.3-2.7-0.3z"/>
			<path id="Layer" fill-rule="evenodd" class="s0" d="m140.4 20.4q-0.2 0.8-0.4 1.5-0.3 0.8-0.7 1.5-0.3 0.6-0.8 1.2-0.4 0.6-1 1.1-0.5 0.5-1.2 0.9-0.6 0.4-1.3 0.6-0.8 0.3-1.6 0.5-0.8 0.1-1.6 0.1-0.9 0-1.8-0.2-0.9-0.1-1.7-0.5-0.9-0.3-1.6-0.8-0.7-0.5-1.4-1.1-0.6-0.7-1.1-1.5-0.5-0.8-0.8-1.7-0.3-1.1-0.5-2.2-0.2-1.1-0.2-2.2 0-1.1 0.2-2.2 0.1-1.1 0.5-2.1 0.3-0.9 0.7-1.8 0.4-0.8 1.1-1.6 0.6-0.7 1.3-1.2 0.8-0.5 1.6-0.9 0.9-0.4 1.9-0.6 0.9-0.1 1.9-0.1 0.8 0 1.7 0.1 0.8 0.1 1.6 0.4 0.7 0.3 1.4 0.7 0.6 0.3 1.2 0.8 0.6 0.5 1 1.1 0.4 0.6 0.8 1.2 0.3 0.7 0.5 1.4 0.2 0.7 0.3 1.4v0.4 0.4h-2.5-2.6l-0.1-0.2v-0.3q-0.2-0.6-0.5-1.1-0.3-0.5-0.8-0.9-0.4-0.4-0.9-0.5-0.5-0.2-1.1-0.2-0.9 0-1.6 0.3-0.8 0.3-1.3 1c-0.4 0.7-0.6 1.4-0.8 2.1-0.1 0.7-0.2 1.5-0.2 2.2 0 0.7 0.1 1.5 0.2 2.2 0.2 0.8 0.4 1.5 0.8 2.1q0.5 0.7 1.2 1 0.7 0.4 1.5 0.3 0.6 0.1 1.2-0.1 0.6-0.2 1.1-0.6 0.5-0.4 0.7-1 0.3-0.6 0.4-1.2l0.1-0.3 0.1-0.3h2.6 2.6l-0.1 0.4z"/>
			<path id="Layer" fill-rule="evenodd" class="s0" d="m151.3 23.4h-5.7l-0.6 1.9-0.7 1.9h-5.5l3.5-9.8 3.5-9.7h5.4l3.4 9.7 3.5 9.8h-5.7l-0.6-1.9zm-2.8-8.7l-1.3 4.2h2.6l-0.7-2.1z"/>
			<path id="Layer" fill-rule="evenodd" class="s0" d="m164 22.4h4.5 4.5v2.4 2.4h-7.2-7.1v-9.8-9.7h2.7 2.6v7.4z"/>
			<path id="Layer" class="s3" d="m169.4 7.3v-2.7-2.6h0.8 0.8l0.4 1.8 0.5 1.8 0.5-1.8 0.5-1.8h0.8 0.8v2.6 2.7h-0.5-0.5v-2.1-2.1l-0.5 2.1-0.6 2.1h-0.5-0.5l-0.5-2.1-0.5-2.1v2.1 2.1h-0.5zm-3.3 0v-2.2-2.2h-0.8-0.8v-0.5-0.4h2.1 2.1v0.4 0.5h-0.8-0.8v2.2 2.2h-0.5z"/>
			<path id="Layer" fill-rule="evenodd" class="s2" d="m160.4 28.3h6.3 6.2v15.8 15.7h-6.2-6.3v-15.7z"/>
			<path id="Layer" class="s1" d="m162.3 31.9h0.1q0.3 0 0.5 0 0.3 0 0.5 0.1 0.3 0 0.5 0.1 0.3 0.1 0.5 0.2 0.6 0.3 1.1 0.6 0.5 0.4 1 0.9 0.1 0.1 0.2 0.2 0 0 0 0.1h0.1q0.6 0.6 1.1 0.9 0.5 0.2 1 0.2 0.2 0 0.3 0 0.2 0 0.3-0.1 0.1-0.1 0.2-0.2 0-0.1 0-0.3 0-0.2-0.1-0.4-0.1-0.1-0.2-0.2-0.2-0.1-0.5-0.2-0.3 0-0.7 0h-0.1v-0.9-0.9h0.1 0.1q0.7 0 1.3 0.1 0.5 0.2 0.9 0.6 0.4 0.3 0.6 0.8 0.2 0.5 0.2 1.2 0 0.6-0.2 1-0.2 0.5-0.5 0.8-0.3 0.4-0.8 0.5-0.4 0.2-1 0.2-0.4 0-0.7-0.1-0.3 0-0.6-0.2-0.3-0.1-0.7-0.4-0.3-0.2-0.6-0.5-0.1-0.1-0.2-0.2-0.1-0.1-0.2-0.2-0.5-0.5-1-0.9-0.4-0.3-0.8-0.5v1.5 1.5h-0.8-0.9v-2.7z"/>
			<path id="Layer" fill-rule="evenodd" class="s1" d="m166.7 38.3q0.8 0 1.4 0 0.6 0 1 0.1 0.3 0 0.6 0.1 0.3 0.1 0.5 0.2 0.2 0.2 0.4 0.4 0.2 0.2 0.4 0.5 0.1 0.3 0.2 0.7 0.1 0.3 0.1 0.7 0 0.4-0.1 0.7-0.1 0.3-0.2 0.6-0.2 0.3-0.4 0.5-0.2 0.3-0.4 0.4-0.2 0.2-0.5 0.2-0.3 0.1-0.6 0.2-0.3 0-0.9 0-0.5 0.1-1.1 0.1-0.8 0-1.3 0-0.5-0.1-0.9-0.1-0.4 0-0.7 0-0.3-0.1-0.5-0.1-0.4-0.1-0.6-0.3-0.3-0.3-0.5-0.6-0.3-0.3-0.4-0.7-0.1-0.5-0.1-0.9 0-0.4 0.1-0.8 0.1-0.3 0.2-0.6 0.1-0.3 0.4-0.5 0.2-0.3 0.4-0.4 0.2-0.1 0.5-0.2 0.3-0.1 0.6-0.1 0.4-0.1 1-0.1 0.6 0 1.4 0zm-0.7 2q-0.7 0-1.2 0-0.5 0-0.7 0.1-0.2 0.1-0.3 0.2-0.1 0.2-0.1 0.4 0 0.2 0.1 0.3 0.1 0.1 0.3 0.2 0.2 0.1 0.7 0.1 0.5 0.1 1.2 0.1h1.5q0.7 0 1.1-0.1 0.5 0 0.7-0.1 0.2-0.1 0.3-0.2 0.1-0.1 0.1-0.3 0-0.2-0.1-0.4-0.1-0.1-0.3-0.2-0.2-0.1-0.7-0.1-0.5 0-1.3 0z"/>
			<path id="Layer" class="s1" d="m162.3 44.6h0.1q0.3 0 0.5 0 0.3 0 0.5 0.1 0.3 0 0.5 0.1 0.3 0.1 0.5 0.2 0.6 0.3 1.1 0.6 0.5 0.4 1 0.9 0.1 0.1 0.2 0.2 0 0 0 0.1h0.1q0.6 0.6 1.1 0.9 0.5 0.2 1 0.2 0.2 0 0.3 0 0.2 0 0.3-0.1 0.1-0.1 0.2-0.2 0-0.1 0-0.3 0-0.2-0.1-0.4-0.1-0.1-0.2-0.2-0.2-0.1-0.5-0.2-0.3 0-0.7 0h-0.1v-0.9-1h0.1 0.1q0.7 0 1.3 0.2 0.5 0.2 0.9 0.5 0.4 0.4 0.6 0.9 0.2 0.5 0.2 1.2 0 0.6-0.2 1-0.2 0.5-0.5 0.8-0.3 0.4-0.8 0.5-0.4 0.2-1 0.2-0.4 0-0.7-0.1-0.3 0-0.6-0.2-0.3-0.1-0.7-0.4-0.3-0.2-0.6-0.5-0.1-0.1-0.2-0.2-0.1-0.1-0.2-0.2-0.5-0.5-1-0.9-0.4-0.3-0.8-0.5v1.5 1.5h-0.8-0.9v-2.7z"/>
			<path id="Layer" fill-rule="evenodd" class="s1" d="m166.7 51q0.8 0 1.4 0 0.6 0 1 0.1 0.3 0 0.6 0.1 0.3 0.1 0.5 0.2 0.2 0.2 0.4 0.4 0.2 0.2 0.4 0.5 0.1 0.3 0.2 0.7 0.1 0.3 0.1 0.7 0 0.4-0.1 0.7-0.1 0.3-0.2 0.6-0.2 0.3-0.4 0.5-0.2 0.3-0.4 0.4-0.2 0.1-0.5 0.2-0.3 0.1-0.6 0.2-0.3 0-0.9 0-0.5 0.1-1.1 0.1-0.8 0-1.3 0-0.5-0.1-0.9-0.1-0.4 0-0.7 0-0.3-0.1-0.5-0.1-0.4-0.1-0.6-0.3-0.3-0.3-0.5-0.6-0.3-0.3-0.4-0.8-0.1-0.4-0.1-0.8 0-0.4 0.1-0.8 0.1-0.3 0.2-0.6 0.1-0.3 0.4-0.5 0.2-0.3 0.4-0.4 0.2-0.1 0.5-0.2 0.3-0.1 0.6-0.1 0.4-0.1 1-0.1 0.6 0 1.4 0zm-0.7 2q-0.7 0-1.2 0-0.5 0-0.7 0.1-0.2 0.1-0.3 0.2-0.1 0.2-0.1 0.4 0 0.2 0.1 0.3 0.1 0.1 0.3 0.2 0.2 0.1 0.7 0.1 0.5 0.1 1.2 0.1h1.5q0.7 0 1.1-0.1 0.5 0 0.7-0.1 0.2-0.1 0.3-0.2 0.1-0.1 0.1-0.3 0-0.2-0.1-0.4-0.1-0.1-0.3-0.2-0.2-0.1-0.7-0.1-0.5 0-1.3 0z"/>
		</g>
	</g>
</svg>