<svg width="101" height="46" viewBox="0 0 101 46" fill="none" xmlns="http://www.w3.org/2000/svg">
<rect x="0.990234" y="1.04199" width="99" height="44" rx="1.5" fill="white" stroke="#F4F4F4"/>
<path d="M64.7748 17.1091L61.5161 25.3994C61.0369 26.6932 60.5098 27.3162 59.5993 27.3162H58.8805C57.9221 27.3162 57.4908 26.5974 57.97 25.3994L61.2286 17.1091C61.7078 15.959 62.235 15.1922 63.0976 15.1922H63.8164C64.7269 15.1922 65.254 15.8631 64.7748 17.1091ZM58.7847 14.2817L58.5451 15.1922H58.8805C59.791 15.1922 60.2702 16.0069 59.791 17.1091L56.5324 25.3994C56.0532 26.6453 55.5261 27.3162 54.6635 27.3162H54.376C44.0251 27.3162 24.9047 27.3162 24.8567 27.3162C24.6651 27.2683 24.1858 27.2204 23.9942 27.1724C23.7546 27.1245 22.9399 26.6453 22.4607 26.6453H9.95338C9.47417 26.6453 8.70744 27.1245 8.27615 27.2204C8.03655 27.2683 7.79694 27.3162 7.55734 27.3162L6.45516 27.46C6.45516 27.46 6.45515 27.46 6.40723 27.46C6.40723 27.46 6.40723 27.46 6.40723 27.5079V27.6996C6.40723 27.6996 6.40723 27.6996 6.40723 27.7475L7.50943 27.8913C8.03656 27.9392 7.94072 27.9392 8.22824 27.9871C8.61161 28.0829 9.47417 28.5622 9.95338 28.5622H22.4607C22.892 28.5622 23.7066 28.0829 23.9942 28.035C24.2817 27.9871 24.5692 27.9392 24.8567 27.8913C24.9047 27.8913 56.3407 27.8913 60.5577 27.8913H64.1518L64.3914 27.3641H64.056C63.1455 27.3641 62.8579 26.5974 63.1455 25.4473L66.4041 17.157C66.8833 15.959 67.4583 15.2402 68.273 15.2402H68.5605L68.8001 14.3297H58.7847V14.2817Z" fill="#C1A94E"/>
<path d="M90.8433 16.2944C92.5206 16.2944 93.8624 16.8216 94.7729 17.9238C95.6833 19.0259 96.0188 20.4156 95.7313 22.0929C95.4437 23.7701 94.6291 25.1598 93.2873 26.262C91.9935 27.3641 90.3641 27.9392 88.6869 27.9392C87.0576 27.9392 85.7637 27.4121 84.8532 26.3099C83.9427 25.2077 83.6073 23.8659 83.9428 22.1887C84.2303 20.5594 85.0449 19.0738 86.3388 17.9717C87.6806 16.8695 89.1661 16.2944 90.8433 16.2944ZM90.6517 17.8279C89.4537 17.8279 88.2556 18.2592 87.3451 19.0738C86.3867 19.8885 85.8117 20.9427 85.5721 22.1887C85.3804 23.3867 85.5721 24.441 86.243 25.2077C86.9138 26.0224 87.8722 26.4057 89.0703 26.4057C90.3162 26.4057 91.3705 25.9744 92.3289 25.1598C93.2873 24.393 93.9103 23.2909 94.102 22.0449C94.2936 20.8469 94.054 19.8406 93.3831 19.0259C92.7602 18.2592 91.8497 17.8279 90.6517 17.8279Z" fill="#C1A94E"/>
<path d="M67.2188 27.7953L71.292 16.3901H74.7902C75.8445 16.3901 76.5633 16.6777 76.9946 17.2527C77.4259 17.8278 77.4259 18.6424 77.0904 19.6008C76.8508 20.2717 76.4675 20.8468 75.9883 21.3739C75.509 21.8531 74.934 22.2365 74.2631 22.4761C73.6401 22.7157 72.7776 22.8115 71.7712 22.8115H70.6211L68.8481 27.7474H67.2188V27.7953ZM73.9756 17.8278H72.3463L71.0524 21.3739H72.7776C73.4005 21.3739 73.9756 21.2301 74.4069 20.8947C74.8861 20.5593 75.1736 20.1279 75.4132 19.5529C75.8924 18.4028 75.3653 17.8278 73.9756 17.8278Z" fill="#C1A94E"/>
<path d="M74.6943 27.7955L78.7676 16.3904H81.4991C82.6013 16.3904 83.368 16.6779 83.8472 17.2529C84.3264 17.828 84.3264 18.5947 83.991 19.5531C83.7514 20.224 83.368 20.7991 82.8888 21.2783C82.4096 21.7575 81.7866 22.1409 81.1157 22.3805C81.4033 22.668 81.6429 23.0035 81.7866 23.3389C81.9783 23.7702 82.17 24.489 82.4096 25.4953C82.5534 26.1662 82.6971 26.6454 82.793 26.933L83.0805 27.7476H81.2116L81.0199 26.9809C81.0199 26.9329 81.0199 26.885 80.972 26.8371L80.8761 26.4537L80.6844 25.6391L80.4928 24.7286C80.349 24.3452 80.2052 23.9619 80.0136 23.6264C79.8698 23.3868 79.726 23.1951 79.4864 23.0514C79.2947 22.9076 78.9593 22.8597 78.4801 22.8597H78.0488L76.2757 27.8435H74.6943V27.7955ZM80.349 17.7801H79.8698L78.5759 21.3742H79.151C79.9656 21.3742 80.5407 21.2783 80.8761 21.1825C81.2116 21.0387 81.547 20.7991 81.7866 20.5595C82.0262 20.272 82.2658 19.9365 82.3617 19.6011C82.5054 19.2177 82.5054 18.9302 82.4575 18.6427C82.3617 18.3551 82.17 18.1155 81.8825 18.0197C81.6429 17.828 81.1157 17.7801 80.349 17.7801Z" fill="#C1A94E"/>
<path d="M8.32363 29.904L8.22781 30.1436C8.13197 30.0957 7.94028 30.0478 7.7486 30.0478C7.55692 30.0478 7.36522 30.1436 7.22145 30.2874C7.07769 30.4311 7.02979 30.6707 7.02979 30.8624C7.02979 31.0541 7.07769 31.2458 7.22145 31.4375C7.36522 31.5812 7.5569 31.6771 7.70066 31.6291C7.94027 31.6291 8.08404 31.5812 8.22781 31.4375L8.41947 31.6291C8.22779 31.7729 7.94027 31.8688 7.70066 31.8688C7.36522 31.8688 7.12561 31.7729 6.98185 31.5812C6.79017 31.3896 6.69434 31.102 6.69434 30.8145C6.69434 30.527 6.79017 30.2874 6.98185 30.0478C7.17353 29.8561 7.46106 29.7603 7.70066 29.7603C7.89234 29.8082 8.13194 29.8082 8.32363 29.904Z" fill="#81325A"/>
<path d="M9.52195 31.102C9.52195 31.4853 9.66571 31.6291 10.0012 31.6291C10.1449 31.6291 10.2408 31.5812 10.3366 31.4853C10.4324 31.3895 10.4804 31.2457 10.4804 31.102C10.4804 30.7186 10.3366 30.5748 10.0012 30.5748C9.85739 30.5748 9.76157 30.6228 9.66573 30.7186C9.56989 30.8144 9.52195 30.9582 9.52195 31.102ZM9.18652 31.102C9.18652 30.9103 9.28237 30.7186 9.42613 30.5269C9.56989 30.3832 9.80947 30.2873 10.0012 30.3352C10.2408 30.3352 10.4324 30.3832 10.5762 30.5269C10.72 30.6707 10.8158 30.8624 10.7679 31.102C10.7679 31.2937 10.72 31.4853 10.5283 31.677C10.3845 31.8208 10.1928 31.8687 9.95324 31.8687C9.71364 31.8687 9.52195 31.8208 9.37819 31.677C9.23443 31.4853 9.18652 31.2937 9.18652 31.102Z" fill="#81325A"/>
<path d="M12.5892 30.6227C12.5413 30.5747 12.4454 30.5747 12.3975 30.5747C12.3017 30.5747 12.2059 30.6227 12.11 30.7185C12.0142 30.8144 11.9663 30.9102 11.9663 31.006V31.8686H11.6787V30.3831H11.9663V30.6227C12.0621 30.431 12.2538 30.3351 12.4455 30.3831C12.5413 30.3831 12.5892 30.383 12.6851 30.431L12.5892 30.6227Z" fill="#81325A"/>
<path d="M13.6909 31.102C13.6909 31.4853 13.8347 31.6291 14.1701 31.6291C14.3139 31.6291 14.4097 31.5812 14.5056 31.4853C14.6014 31.3895 14.6493 31.2457 14.6493 31.102C14.6493 30.7186 14.5056 30.5748 14.1701 30.5748C14.0264 30.5748 13.9305 30.6228 13.8347 30.7186C13.6909 30.8144 13.643 30.9582 13.6909 31.102ZM13.3555 31.102C13.3555 30.9103 13.4513 30.7186 13.5951 30.5269C13.7388 30.3832 13.9784 30.2873 14.1701 30.3352C14.4097 30.3352 14.6014 30.3832 14.7452 30.5269C14.8889 30.6707 14.9369 30.8624 14.9369 31.102C14.9369 31.2937 14.8889 31.5333 14.7452 31.677C14.6014 31.8208 14.4097 31.8687 14.1701 31.8687C13.9305 31.8687 13.7388 31.8208 13.5951 31.677C13.4034 31.4853 13.3555 31.2937 13.3555 31.102Z" fill="#81325A"/>
<path d="M16.8542 31.8208V30.9583C16.8542 30.8145 16.8062 30.6707 16.7583 30.6228C16.6625 30.5749 16.5666 30.527 16.4708 30.527C16.3749 30.527 16.327 30.5269 16.2312 30.5749C16.1832 30.6228 16.0874 30.6707 16.0395 30.7187V31.8208H15.752V30.3353H15.9436L16.0395 30.527C16.1353 30.3832 16.327 30.2874 16.5187 30.2874C16.9021 30.2874 17.0938 30.479 17.0938 30.8624V31.7729L16.8542 31.8208Z" fill="#81325A"/>
<path d="M19.106 31.102C19.0581 31.102 18.9622 31.1019 18.9143 31.054C18.7706 31.054 18.6268 31.1019 18.531 31.1499C18.4351 31.1978 18.3872 31.2936 18.3872 31.3895C18.3872 31.5332 18.483 31.6291 18.7226 31.6291C18.8664 31.6291 19.0581 31.5812 19.1539 31.4374V31.102H19.106ZM19.106 31.677C18.9622 31.8208 18.7706 31.8687 18.531 31.8687C18.3872 31.8687 18.2914 31.8208 18.1955 31.7249C18.0997 31.6291 18.0518 31.5332 18.0518 31.3895C18.0518 31.2457 18.1476 31.1019 18.2914 31.0061C18.483 30.9103 18.6747 30.8624 18.8664 30.8624C18.9622 30.8624 19.0102 30.8623 19.106 30.9103C19.106 30.6707 18.9622 30.5748 18.7226 30.5748C18.5789 30.5748 18.3872 30.6228 18.2914 30.7186L18.1476 30.479C18.2434 30.4311 18.2913 30.3831 18.3872 30.3831C18.483 30.3352 18.5789 30.3352 18.6747 30.3352C18.9143 30.3352 19.106 30.3831 19.2018 30.479C19.2977 30.5748 19.3935 30.7186 19.3935 30.9582V31.4853C19.3935 31.6291 19.4414 31.677 19.5373 31.7249V31.8687C19.4414 31.8687 19.3456 31.8687 19.2498 31.8208C19.2019 31.7728 19.1539 31.7249 19.106 31.677Z" fill="#81325A"/>
<path d="M21.3587 30.6228C21.2149 30.527 20.9753 30.5749 20.8795 30.6707C20.7836 30.7666 20.7357 30.8624 20.7836 30.9583V31.8208H20.4961V30.3353H20.7836V30.5749C20.8794 30.3832 21.0711 30.2874 21.2628 30.2874C21.3587 30.2874 21.4066 30.2873 21.5024 30.3353L21.3587 30.6228Z" fill="#81325A"/>
<path d="M22.9397 32.1082C22.8918 32.204 22.796 32.2999 22.7001 32.3478C22.5564 32.3957 22.4126 32.4436 22.2688 32.4436V32.204C22.3647 32.204 22.5085 32.1561 22.6043 32.1082C22.7001 32.0603 22.7481 32.0124 22.7481 31.9165C22.7481 31.8207 22.748 31.7728 22.7001 31.6769C22.6522 31.5811 22.6043 31.4852 22.5564 31.3894L22.0771 30.3831H22.4126L22.9397 31.5331L23.4189 30.3831H23.7544L22.9397 32.1082Z" fill="#81325A"/>
<path d="M26.3423 30.0956V31.5812C26.4381 31.5812 26.486 31.5812 26.6298 31.5812C26.8215 31.5812 27.0132 31.5332 27.1569 31.3895C27.3007 31.2457 27.3486 31.054 27.3486 30.8144C27.3486 30.3352 27.109 30.0956 26.5819 30.0956C26.534 30.0477 26.4381 30.0477 26.3423 30.0956ZM26.486 31.8208H26.0068V29.8081C26.2944 29.8081 26.534 29.8081 26.5819 29.8081C26.9173 29.8081 27.2049 29.9039 27.3966 30.0477C27.5882 30.2394 27.6841 30.479 27.6841 30.7186C27.6841 31.4853 27.3007 31.8208 26.486 31.8208Z" fill="#81325A"/>
<path d="M28.8825 29.8081C28.9304 29.8081 28.9783 29.8081 29.0262 29.856C29.0741 29.9039 29.0742 29.9039 29.0742 29.9519C29.0742 29.9998 29.0741 30.0477 29.0262 30.0477C28.9783 30.0956 28.9304 30.0956 28.8825 30.0956C28.8345 30.0956 28.7866 30.0956 28.7387 30.0477C28.6908 29.9998 28.6908 29.9998 28.6908 29.9519C28.6908 29.9039 28.6908 29.856 28.7387 29.856C28.7866 29.8081 28.8345 29.8081 28.8825 29.8081ZM28.6908 31.8208V30.5748H28.4512V30.3352H28.9783V31.8208H28.6908Z" fill="#81325A"/>
<path d="M30.0801 31.4375V29.7603H30.3676V31.3895C30.3676 31.4375 30.4155 31.5333 30.4634 31.5812C30.5114 31.6292 30.6072 31.6291 30.6551 31.6291V31.8688C30.2718 31.8688 30.0801 31.725 30.0801 31.4375Z" fill="#81325A"/>
<path d="M32.5239 31.102C32.476 31.102 32.3802 31.1019 32.3322 31.054C32.1885 31.054 32.0447 31.1019 31.9489 31.1499C31.853 31.1978 31.8051 31.2936 31.8051 31.3895C31.8051 31.5332 31.9009 31.6291 32.1405 31.6291C32.2843 31.6291 32.4281 31.5812 32.5718 31.4374L32.5239 31.102ZM32.5718 31.677C32.4281 31.8208 32.2364 31.8687 31.9968 31.8687C31.853 31.8687 31.7572 31.8208 31.6613 31.7249C31.5655 31.6291 31.5176 31.5332 31.5176 31.3895C31.5176 31.2457 31.6134 31.1019 31.7572 31.0061C31.9489 30.9103 32.1406 30.8624 32.3322 30.8624C32.4281 30.8624 32.476 30.8623 32.5718 30.9103C32.5718 30.6707 32.4281 30.5748 32.1885 30.5748C32.0447 30.5748 31.853 30.6228 31.7572 30.7186L31.6134 30.479C31.7093 30.4311 31.7572 30.3831 31.853 30.3831C31.9489 30.3352 32.0447 30.3352 32.1405 30.3352C32.3801 30.3352 32.5718 30.3831 32.7156 30.479C32.8594 30.5748 32.9073 30.7186 32.9073 30.9582V31.4853C32.9073 31.5812 32.9552 31.677 33.051 31.7249V31.8687C32.9552 31.8687 32.8593 31.8687 32.7635 31.8208C32.6197 31.7728 32.5718 31.7249 32.5718 31.677Z" fill="#81325A"/>
<path d="M33.9612 30.5748H33.7695V30.3831H33.9612V30.0956L34.2487 29.9998V30.431H34.7279V30.6227H34.2487V31.3415C34.2487 31.4374 34.2487 31.5332 34.3446 31.5811C34.3925 31.6291 34.4883 31.677 34.5842 31.677C34.68 31.677 34.7759 31.677 34.8238 31.629L34.8717 31.8686C34.7279 31.9166 34.5842 31.9166 34.4404 31.9166C34.2966 31.9166 34.2008 31.8686 34.105 31.7728C34.0091 31.677 33.9612 31.5811 33.9612 31.4374V30.5748Z" fill="#81325A"/>
<path d="M36.645 31.102C36.5971 31.102 36.5013 31.1019 36.4533 31.054C36.3096 31.054 36.1658 31.1019 36.07 31.1499C35.9741 31.1978 35.9262 31.2936 35.9262 31.3895C35.9262 31.5332 36.0221 31.6291 36.2617 31.6291C36.4054 31.6291 36.5492 31.5812 36.6929 31.4374L36.645 31.102ZM36.6929 31.677C36.5492 31.8208 36.3575 31.8687 36.1179 31.8687C35.9741 31.8687 35.8783 31.8208 35.7825 31.7249C35.6866 31.6291 35.6387 31.5332 35.6387 31.3895C35.6387 31.2457 35.7345 31.1019 35.8783 31.0061C36.07 30.9103 36.2616 30.8624 36.4533 30.8624C36.5492 30.8624 36.5971 30.8623 36.6929 30.9103C36.6929 30.6707 36.5492 30.5748 36.3096 30.5748C36.1658 30.5748 35.9741 30.6228 35.8783 30.7186L35.7345 30.479C35.8304 30.4311 35.8783 30.3831 35.9741 30.3831C36.07 30.3352 36.1658 30.3352 36.2617 30.3352C36.5013 30.3352 36.6929 30.3831 36.8367 30.479C36.9325 30.5748 37.0284 30.7186 37.0284 30.9582V31.4853C37.0284 31.5812 37.0763 31.677 37.1721 31.7249V31.8687C37.0763 31.8687 36.9805 31.8687 36.8846 31.8208C36.7409 31.7728 36.6929 31.7249 36.6929 31.677Z" fill="#81325A"/>
<path d="M38.1311 30.5748H37.9395V30.3831H38.1311V30.0956L38.4187 29.9998V30.431H38.8979V30.6227H38.4187V31.3415C38.4187 31.4374 38.4186 31.5332 38.5145 31.5811C38.5624 31.6291 38.6582 31.677 38.7541 31.677C38.8499 31.677 38.9458 31.677 38.9937 31.629L39.0416 31.8686C38.8979 31.9166 38.7541 31.9166 38.6103 31.9166C38.4666 31.9166 38.3707 31.8686 38.2749 31.7728C38.179 31.677 38.1311 31.5811 38.1311 31.4374V30.5748Z" fill="#81325A"/>
<path d="M40.191 29.8081C40.239 29.8081 40.2869 29.8081 40.3348 29.856C40.3827 29.9039 40.3827 29.9039 40.3827 29.9519C40.3827 29.9998 40.3827 30.0477 40.3348 30.0477C40.2869 30.0956 40.239 30.0956 40.191 30.0956C40.1431 30.0956 40.0952 30.0956 40.0473 30.0477C39.9994 29.9998 39.9994 29.9998 39.9994 29.9519C39.9994 29.9039 39.9994 29.856 40.0473 29.856C40.0952 29.8081 40.1431 29.8081 40.191 29.8081ZM39.9994 31.8208V30.5748H39.7598V30.3352H40.2869V31.8208H39.9994Z" fill="#81325A"/>
<path d="M41.5332 31.102C41.5332 31.4853 41.6769 31.6291 42.0124 31.6291C42.1561 31.6291 42.2519 31.5812 42.3478 31.4853C42.4436 31.3895 42.4916 31.2457 42.4916 31.102C42.4916 30.7186 42.3478 30.5748 42.0124 30.5748C41.8686 30.5748 41.7728 30.6228 41.6769 30.7186C41.5811 30.8144 41.5332 30.9582 41.5332 31.102ZM41.2456 31.102C41.2456 30.9103 41.3415 30.6707 41.4852 30.5269C41.629 30.3832 41.8686 30.2873 42.0603 30.3352C42.2999 30.3352 42.4916 30.3832 42.6353 30.5269C42.7791 30.6707 42.8749 30.8624 42.827 31.102C42.827 31.2937 42.7791 31.4853 42.6353 31.677C42.4916 31.8208 42.252 31.9166 42.0603 31.8687C41.8207 31.8687 41.629 31.8208 41.4852 31.677C41.2935 31.4853 41.1977 31.2937 41.2456 31.102Z" fill="#81325A"/>
<path d="M44.7438 31.8208V30.9583C44.7438 30.8145 44.6959 30.6707 44.648 30.6228C44.5521 30.5749 44.4563 30.527 44.3604 30.527C44.2646 30.527 44.2167 30.5269 44.1208 30.5749C44.0729 30.6228 43.9771 30.6707 43.9291 30.7187V31.8208H43.6416V30.3353H43.8333L43.9291 30.527C44.025 30.3832 44.2167 30.2874 44.4084 30.2874C44.7917 30.2874 44.9834 30.479 44.9834 30.8624V31.7729L44.7438 31.8208Z" fill="#81325A"/>
<path d="M49.1049 29.904L49.0091 30.1436C48.9132 30.0957 48.7215 30.0478 48.5298 30.0478C48.3382 30.0478 48.1465 30.1436 48.0027 30.2874C47.859 30.4311 47.811 30.6707 47.811 30.8624C47.811 31.0541 47.859 31.2458 48.0027 31.4375C48.1465 31.5812 48.3382 31.6771 48.4819 31.6291C48.7215 31.6291 48.8653 31.5812 49.0091 31.4375L49.2008 31.6291C49.0091 31.7729 48.7215 31.8688 48.4819 31.8688C48.1944 31.8688 47.9069 31.7729 47.7631 31.5812C47.5714 31.3896 47.4756 31.102 47.4756 30.8145C47.4756 30.527 47.5714 30.2874 47.7631 30.0478C47.9548 29.8561 48.2423 29.7603 48.4819 29.7603C48.7215 29.8082 48.9132 29.8082 49.1049 29.904Z" fill="#81325A"/>
<path d="M51.0699 31.102C51.022 31.102 50.9261 31.1019 50.8782 31.054C50.7345 31.054 50.5907 31.1019 50.4948 31.1499C50.399 31.1978 50.3511 31.2936 50.3511 31.3895C50.3511 31.5332 50.4469 31.6291 50.6865 31.6291C50.8303 31.6291 50.9741 31.5812 51.1178 31.4374V31.102H51.0699ZM51.0699 31.677C50.9261 31.8208 50.7344 31.8687 50.4948 31.8687C50.3511 31.8687 50.2553 31.8208 50.1594 31.7249C50.0636 31.6291 50.0156 31.5332 50.0156 31.3895C50.0156 31.2457 50.1115 31.1019 50.2552 31.0061C50.4469 30.9103 50.6386 30.8624 50.8303 30.8624C50.9261 30.8624 50.974 30.8623 51.0699 30.9103C51.0699 30.6707 50.9261 30.5748 50.6865 30.5748C50.5428 30.5748 50.3511 30.6228 50.2552 30.7186L50.1115 30.479C50.2073 30.4311 50.2552 30.3831 50.3511 30.3831C50.4469 30.3352 50.5428 30.3352 50.6386 30.3352C50.8782 30.3352 51.0699 30.3831 51.2136 30.479C51.3095 30.5748 51.4053 30.7186 51.4053 30.9582V31.4853C51.4053 31.5812 51.4533 31.677 51.5491 31.7249V31.8687C51.4533 31.8687 51.3574 31.8687 51.2616 31.8208C51.1657 31.7728 51.1178 31.7249 51.0699 31.677Z" fill="#81325A"/>
<path d="M52.5071 30.5748H52.3154V30.3831H52.5071V30.0956L52.7946 29.9998V30.431H53.2738V30.6227H52.7946V31.3415C52.7946 31.4374 52.7946 31.5332 52.8905 31.5811C52.9384 31.6291 53.0342 31.677 53.1301 31.677C53.2259 31.677 53.3217 31.677 53.3697 31.629L53.4176 31.8686C53.2738 31.9166 53.1301 31.9166 52.9863 31.9166C52.8425 31.9166 52.7467 31.8686 52.6509 31.7728C52.555 31.677 52.5071 31.5811 52.5071 31.4374V30.5748Z" fill="#81325A"/>
<path d="M55.3345 31.8208V30.9103C55.3345 30.8144 55.2866 30.7186 55.2387 30.6707C55.1428 30.6228 55.047 30.5748 54.9512 30.5748C54.8074 30.5748 54.6636 30.6228 54.5678 30.7665V31.8687H54.2803V29.8081H54.5678V30.5748C54.6157 30.5269 54.7116 30.479 54.7595 30.4311C54.8553 30.3831 54.9512 30.3832 55.047 30.3832C55.1908 30.3832 55.3825 30.4311 55.4783 30.5269C55.5741 30.6228 55.6221 30.7665 55.6221 30.9582V31.8687H55.3345V31.8208Z" fill="#81325A"/>
<path d="M57.2996 30.5749C57.1558 30.5749 57.06 30.6228 56.9641 30.6707C56.8683 30.7186 56.8204 30.8145 56.8204 30.9103H57.7788C57.7788 30.8145 57.7309 30.7186 57.635 30.6707C57.5871 30.5749 57.4433 30.5749 57.2996 30.5749ZM58.0663 31.1499H56.8204C56.8204 31.2937 56.8683 31.4374 56.9641 31.5333C57.06 31.6291 57.2038 31.6771 57.3475 31.6291C57.4913 31.6291 57.683 31.5812 57.7788 31.4854L57.9225 31.6771C57.8746 31.725 57.7788 31.7729 57.6829 31.7729C57.5392 31.8208 57.3954 31.8208 57.2517 31.8208C57.06 31.8208 56.8683 31.7729 56.6766 31.6291C56.4849 31.4854 56.3891 31.2937 56.437 31.0541C56.437 30.8145 56.5329 30.6228 56.6766 30.479C56.8204 30.3353 57.0121 30.2874 57.2517 30.2874C57.4913 30.2874 57.683 30.3353 57.8267 30.479C57.9705 30.5749 58.0184 30.7666 58.0184 30.9103C58.0663 31.0062 58.0663 31.0541 58.0663 31.1499Z" fill="#81325A"/>
<path d="M59.0726 30.5748H58.833V30.3831H59.0247V30.0956L59.3122 29.9998V30.431H59.7914V30.6227H59.3122V31.3415C59.3122 31.4374 59.3122 31.5332 59.4081 31.5811C59.456 31.6291 59.5518 31.677 59.6477 31.677C59.7435 31.677 59.8394 31.677 59.8873 31.629L59.9352 31.8686C59.7914 31.9166 59.6477 31.9166 59.5039 31.9166C59.3601 31.9166 59.2643 31.8686 59.1685 31.7728C59.0726 31.677 59.0247 31.5811 59.0247 31.4374L59.0726 30.5748Z" fill="#81325A"/>
<path d="M61.5164 30.5749C61.3726 30.5749 61.2768 30.6228 61.181 30.6707C61.0851 30.7186 61.0372 30.8145 61.0372 30.9103H61.9956C61.9956 30.8145 61.9477 30.7186 61.8998 30.6707C61.756 30.5749 61.6601 30.5749 61.5164 30.5749ZM62.2831 31.1499H61.0372C61.0372 31.2937 61.0851 31.4374 61.181 31.5333C61.2768 31.6291 61.4206 31.6771 61.5643 31.6291C61.7081 31.6291 61.8997 31.5812 61.9956 31.4854L62.1394 31.6771C62.0915 31.725 61.9956 31.7729 61.8998 31.7729C61.756 31.8208 61.6122 31.8208 61.4685 31.8208C61.2768 31.8208 61.0851 31.7729 60.8934 31.6291C60.7017 31.4854 60.6059 31.2937 60.6538 31.0541C60.6538 30.8145 60.7497 30.6228 60.8934 30.479C61.0372 30.3353 61.2289 30.2874 61.4685 30.2874C61.7081 30.2874 61.8998 30.3353 62.0435 30.479C62.1873 30.5749 62.2352 30.7666 62.2352 30.9103C62.2831 31.0062 62.2831 31.0541 62.2831 31.1499Z" fill="#81325A"/>
<path d="M64.1039 30.6227C64.0559 30.5748 63.9601 30.5748 63.9122 30.5748C63.8163 30.5748 63.7205 30.6228 63.6247 30.7186C63.5288 30.8144 63.4809 30.9103 63.4809 31.0061V31.8687H63.1934V30.3831H63.4809V30.6227C63.5767 30.4311 63.7684 30.3352 64.008 30.3352C64.1039 30.3352 64.1518 30.3352 64.2476 30.3831L64.1039 30.6227Z" fill="#81325A"/>
<path d="M7.41323 23.9617C7.50908 24.1534 7.65283 24.2972 7.7966 24.4409C7.94036 24.5368 8.13203 24.5847 8.32371 24.5847C8.5154 24.5847 8.65916 24.5368 8.80292 24.4409C8.9946 24.2972 9.04255 24.0576 8.94671 23.8659C8.94671 23.818 8.89878 23.818 8.85086 23.7701C8.7071 23.6263 8.56333 23.5304 8.37165 23.4825C8.32373 23.4825 8.2758 23.4346 8.17996 23.3867C7.70075 23.195 7.41323 23.0512 7.31739 23.0033C7.17362 22.9075 7.02985 22.7637 6.88609 22.572C6.79025 22.4283 6.74233 22.2366 6.74233 22.0928C6.74233 21.7095 6.93403 21.3261 7.26948 21.0865C7.60492 20.8469 8.03619 20.7031 8.56332 20.7031C8.89876 20.7031 9.23423 20.7511 9.56967 20.8948C9.8572 21.0386 10.0968 21.2303 10.2405 21.5178L9.66552 21.8532C9.56968 21.6616 9.42589 21.5178 9.28213 21.4219C9.09045 21.3261 8.89879 21.2782 8.7071 21.2782C8.56334 21.2782 8.37166 21.3261 8.22789 21.4219C8.13205 21.5178 8.0362 21.6136 8.0362 21.7574C8.0362 21.8532 8.08411 21.997 8.17996 22.0449C8.2758 22.1407 8.46749 22.2366 8.75501 22.3324L8.85086 22.3804C9.37799 22.572 9.71343 22.7158 9.80927 22.8117C9.95304 22.9075 10.0968 23.0513 10.2405 23.195C10.3364 23.3388 10.3843 23.5305 10.3843 23.6742C10.3843 24.1055 10.1926 24.4409 9.85718 24.6805C9.52174 24.9201 9.04255 25.0639 8.4675 25.0639C8.08413 25.0639 7.74866 25.016 7.3653 24.8722C7.07777 24.7285 6.83817 24.5368 6.64648 24.2493L7.41323 23.9617Z" fill="#81325A"/>
<path d="M13.5959 23.243H14.8898L14.2189 21.7574L13.5959 23.243ZM12.1104 25.016L13.8834 20.8469H15.3211L17.2379 25.016H15.7044L15.1294 23.7701H13.3563L12.8292 25.016H12.1104Z" fill="#81325A"/>
<path d="M20.7355 21.3261V22.7638H21.0709C21.4064 22.7638 21.6939 22.7158 21.8376 22.62C21.9814 22.5242 22.1252 22.3325 22.0773 22.1408C22.0773 21.9012 21.9814 21.7095 21.7897 21.5657C21.5981 21.422 21.3584 21.3261 21.023 21.3261H20.7355ZM19.2979 25.016V20.8469H21.4064C22.0773 20.8469 22.6044 20.9428 22.9878 21.1824C23.3232 21.3741 23.5628 21.7574 23.5628 22.1887C23.5628 22.5241 23.419 22.8596 23.1315 23.0034C22.844 23.195 22.4606 23.2909 21.9335 23.2909H20.7834V24.9681L19.2979 25.016Z" fill="#81325A"/>
<path d="M27.1573 21.3261V22.7638H27.4927C27.8282 22.7638 28.1157 22.7158 28.2595 22.62C28.4032 22.5242 28.4991 22.3325 28.4991 22.1408C28.4991 21.9012 28.4032 21.7095 28.2115 21.5657C28.0198 21.422 27.7803 21.3261 27.4448 21.3261H27.1573ZM25.7676 25.016V20.8469H27.8761C28.547 20.8469 29.0741 20.9428 29.4575 21.1824C29.7929 21.3741 30.0325 21.7574 30.0325 22.1887C30.0325 22.5241 29.8888 22.8596 29.6012 23.0034C29.3137 23.195 28.9304 23.2909 28.4032 23.2909H27.2531V24.9681L25.7676 25.016Z" fill="#81325A"/>
<path d="M35.2553 22.6201V20.7991H36.693V25.0161H35.2553V23.1951H33.674V25.0161H32.2363V20.7991H33.674V22.6201H35.2553Z" fill="#81325A"/>
<path d="M40.9103 20.7991H39.4248V24.9682H40.9103V20.7991Z" fill="#81325A"/>
<path d="M43.6416 25.016V20.8469H45.9418C46.6127 20.8469 47.1398 20.9428 47.4753 21.1824C47.8586 21.422 48.0503 21.7095 48.0503 22.1408C48.0503 22.4283 47.9545 22.6679 47.7628 22.8596C47.5711 23.0513 47.2357 23.195 46.8523 23.243L48.0982 25.0639H46.4689L45.1751 22.9075H45.5105C45.8939 22.9075 46.1335 22.8596 46.3252 22.7158C46.5169 22.5721 46.5648 22.4283 46.5648 22.1408C46.5648 21.8533 46.4689 21.6616 46.2772 21.5657C46.0856 21.422 45.798 21.3741 45.4147 21.3741H45.0313V25.0639H43.6416V25.016Z" fill="#81325A"/>
<path d="M50.4463 25.0161V20.7991H53.7049V21.3741H51.9318V22.6201H53.6091V23.1951H51.9318V24.441H53.8007V25.0161H50.4463Z" fill="#81325A"/>
<path d="M8.32363 29.904L8.22781 30.1436C8.13197 30.0957 7.94028 30.0478 7.7486 30.0478C7.55692 30.0478 7.36522 30.1436 7.22145 30.2874C7.07769 30.4311 7.02979 30.6707 7.02979 30.8624C7.02979 31.0541 7.07769 31.2458 7.22145 31.4375C7.36522 31.5812 7.5569 31.6771 7.70066 31.6291C7.94027 31.6291 8.08404 31.5812 8.22781 31.4375L8.41947 31.6291C8.22779 31.7729 7.94027 31.8688 7.70066 31.8688C7.36522 31.8688 7.12561 31.7729 6.98185 31.5812C6.79017 31.3896 6.69434 31.102 6.69434 30.8145C6.69434 30.527 6.79017 30.2874 6.98185 30.0478C7.17353 29.8561 7.46106 29.7603 7.70066 29.7603C7.89234 29.8082 8.13194 29.8082 8.32363 29.904Z" fill="#81325A"/>
<path d="M9.52195 31.102C9.52195 31.4853 9.66571 31.6291 10.0012 31.6291C10.1449 31.6291 10.2408 31.5812 10.3366 31.4853C10.4324 31.3895 10.4804 31.2457 10.4804 31.102C10.4804 30.7186 10.3366 30.5748 10.0012 30.5748C9.85739 30.5748 9.76157 30.6228 9.66573 30.7186C9.56989 30.8144 9.52195 30.9582 9.52195 31.102ZM9.18652 31.102C9.18652 30.9103 9.28237 30.7186 9.42613 30.5269C9.56989 30.3832 9.80947 30.2873 10.0012 30.3352C10.2408 30.3352 10.4324 30.3832 10.5762 30.5269C10.72 30.6707 10.8158 30.8624 10.7679 31.102C10.7679 31.2937 10.72 31.4853 10.5283 31.677C10.3845 31.8208 10.1928 31.8687 9.95324 31.8687C9.71364 31.8687 9.52195 31.8208 9.37819 31.677C9.23443 31.4853 9.18652 31.2937 9.18652 31.102Z" fill="#81325A"/>
<path d="M12.5892 30.6227C12.5413 30.5747 12.4454 30.5747 12.3975 30.5747C12.3017 30.5747 12.2059 30.6227 12.11 30.7185C12.0142 30.8144 11.9663 30.9102 11.9663 31.006V31.8686H11.6787V30.3831H11.9663V30.6227C12.0621 30.431 12.2538 30.3351 12.4455 30.3831C12.5413 30.3831 12.5892 30.383 12.6851 30.431L12.5892 30.6227Z" fill="#81325A"/>
<path d="M13.6909 31.102C13.6909 31.4853 13.8347 31.6291 14.1701 31.6291C14.3139 31.6291 14.4097 31.5812 14.5056 31.4853C14.6014 31.3895 14.6493 31.2457 14.6493 31.102C14.6493 30.7186 14.5056 30.5748 14.1701 30.5748C14.0264 30.5748 13.9305 30.6228 13.8347 30.7186C13.6909 30.8144 13.643 30.9582 13.6909 31.102ZM13.3555 31.102C13.3555 30.9103 13.4513 30.7186 13.5951 30.5269C13.7388 30.3832 13.9784 30.2873 14.1701 30.3352C14.4097 30.3352 14.6014 30.3832 14.7452 30.5269C14.8889 30.6707 14.9369 30.8624 14.9369 31.102C14.9369 31.2937 14.8889 31.5333 14.7452 31.677C14.6014 31.8208 14.4097 31.8687 14.1701 31.8687C13.9305 31.8687 13.7388 31.8208 13.5951 31.677C13.4034 31.4853 13.3555 31.2937 13.3555 31.102Z" fill="#81325A"/>
<path d="M16.8542 31.8208V30.9583C16.8542 30.8145 16.8062 30.6707 16.7583 30.6228C16.6625 30.5749 16.5666 30.527 16.4708 30.527C16.3749 30.527 16.327 30.5269 16.2312 30.5749C16.1832 30.6228 16.0874 30.6707 16.0395 30.7187V31.8208H15.752V30.3353H15.9436L16.0395 30.527C16.1353 30.3832 16.327 30.2874 16.5187 30.2874C16.9021 30.2874 17.0938 30.479 17.0938 30.8624V31.7729L16.8542 31.8208Z" fill="#81325A"/>
<path d="M19.106 31.102C19.0581 31.102 18.9622 31.1019 18.9143 31.054C18.7706 31.054 18.6268 31.1019 18.531 31.1499C18.4351 31.1978 18.3872 31.2936 18.3872 31.3895C18.3872 31.5332 18.483 31.6291 18.7226 31.6291C18.8664 31.6291 19.0581 31.5812 19.1539 31.4374V31.102H19.106ZM19.106 31.677C18.9622 31.8208 18.7706 31.8687 18.531 31.8687C18.3872 31.8687 18.2914 31.8208 18.1955 31.7249C18.0997 31.6291 18.0518 31.5332 18.0518 31.3895C18.0518 31.2457 18.1476 31.1019 18.2914 31.0061C18.483 30.9103 18.6747 30.8624 18.8664 30.8624C18.9622 30.8624 19.0102 30.8623 19.106 30.9103C19.106 30.6707 18.9622 30.5748 18.7226 30.5748C18.5789 30.5748 18.3872 30.6228 18.2914 30.7186L18.1476 30.479C18.2434 30.4311 18.2913 30.3831 18.3872 30.3831C18.483 30.3352 18.5789 30.3352 18.6747 30.3352C18.9143 30.3352 19.106 30.3831 19.2018 30.479C19.2977 30.5748 19.3935 30.7186 19.3935 30.9582V31.4853C19.3935 31.6291 19.4414 31.677 19.5373 31.7249V31.8687C19.4414 31.8687 19.3456 31.8687 19.2498 31.8208C19.2019 31.7728 19.1539 31.7249 19.106 31.677Z" fill="#81325A"/>
<path d="M21.3587 30.6228C21.2149 30.527 20.9753 30.5749 20.8795 30.6707C20.7836 30.7666 20.7357 30.8624 20.7836 30.9583V31.8208H20.4961V30.3353H20.7836V30.5749C20.8794 30.3832 21.0711 30.2874 21.2628 30.2874C21.3587 30.2874 21.4066 30.2873 21.5024 30.3353L21.3587 30.6228Z" fill="#81325A"/>
<path d="M22.9397 32.1082C22.8918 32.204 22.796 32.2999 22.7001 32.3478C22.5564 32.3957 22.4126 32.4436 22.2688 32.4436V32.204C22.3647 32.204 22.5085 32.1561 22.6043 32.1082C22.7001 32.0603 22.7481 32.0124 22.7481 31.9165C22.7481 31.8207 22.748 31.7728 22.7001 31.6769C22.6522 31.5811 22.6043 31.4852 22.5564 31.3894L22.0771 30.3831H22.4126L22.9397 31.5331L23.4189 30.3831H23.7544L22.9397 32.1082Z" fill="#81325A"/>
<path d="M26.3423 30.0956V31.5812C26.4381 31.5812 26.486 31.5812 26.6298 31.5812C26.8215 31.5812 27.0132 31.5332 27.1569 31.3895C27.3007 31.2457 27.3486 31.054 27.3486 30.8144C27.3486 30.3352 27.109 30.0956 26.5819 30.0956C26.534 30.0477 26.4381 30.0477 26.3423 30.0956ZM26.486 31.8208H26.0068V29.8081C26.2944 29.8081 26.534 29.8081 26.5819 29.8081C26.9173 29.8081 27.2049 29.9039 27.3966 30.0477C27.5882 30.2394 27.6841 30.479 27.6841 30.7186C27.6841 31.4853 27.3007 31.8208 26.486 31.8208Z" fill="#81325A"/>
<path d="M28.8825 29.8081C28.9304 29.8081 28.9783 29.8081 29.0262 29.856C29.0741 29.9039 29.0742 29.9039 29.0742 29.9519C29.0742 29.9998 29.0741 30.0477 29.0262 30.0477C28.9783 30.0956 28.9304 30.0956 28.8825 30.0956C28.8345 30.0956 28.7866 30.0956 28.7387 30.0477C28.6908 29.9998 28.6908 29.9998 28.6908 29.9519C28.6908 29.9039 28.6908 29.856 28.7387 29.856C28.7866 29.8081 28.8345 29.8081 28.8825 29.8081ZM28.6908 31.8208V30.5748H28.4512V30.3352H28.9783V31.8208H28.6908Z" fill="#81325A"/>
<path d="M30.0801 31.4375V29.7603H30.3676V31.3895C30.3676 31.4375 30.4155 31.5333 30.4634 31.5812C30.5114 31.6292 30.6072 31.6291 30.6551 31.6291V31.8688C30.2718 31.8688 30.0801 31.725 30.0801 31.4375Z" fill="#81325A"/>
<path d="M32.5239 31.102C32.476 31.102 32.3802 31.1019 32.3322 31.054C32.1885 31.054 32.0447 31.1019 31.9489 31.1499C31.853 31.1978 31.8051 31.2936 31.8051 31.3895C31.8051 31.5332 31.9009 31.6291 32.1405 31.6291C32.2843 31.6291 32.4281 31.5812 32.5718 31.4374L32.5239 31.102ZM32.5718 31.677C32.4281 31.8208 32.2364 31.8687 31.9968 31.8687C31.853 31.8687 31.7572 31.8208 31.6613 31.7249C31.5655 31.6291 31.5176 31.5332 31.5176 31.3895C31.5176 31.2457 31.6134 31.1019 31.7572 31.0061C31.9489 30.9103 32.1406 30.8624 32.3322 30.8624C32.4281 30.8624 32.476 30.8623 32.5718 30.9103C32.5718 30.6707 32.4281 30.5748 32.1885 30.5748C32.0447 30.5748 31.853 30.6228 31.7572 30.7186L31.6134 30.479C31.7093 30.4311 31.7572 30.3831 31.853 30.3831C31.9489 30.3352 32.0447 30.3352 32.1405 30.3352C32.3801 30.3352 32.5718 30.3831 32.7156 30.479C32.8594 30.5748 32.9073 30.7186 32.9073 30.9582V31.4853C32.9073 31.5812 32.9552 31.677 33.051 31.7249V31.8687C32.9552 31.8687 32.8593 31.8687 32.7635 31.8208C32.6197 31.7728 32.5718 31.7249 32.5718 31.677Z" fill="#81325A"/>
<path d="M33.9612 30.5748H33.7695V30.3831H33.9612V30.0956L34.2487 29.9998V30.431H34.7279V30.6227H34.2487V31.3415C34.2487 31.4374 34.2487 31.5332 34.3446 31.5811C34.3925 31.6291 34.4883 31.677 34.5842 31.677C34.68 31.677 34.7759 31.677 34.8238 31.629L34.8717 31.8686C34.7279 31.9166 34.5842 31.9166 34.4404 31.9166C34.2966 31.9166 34.2008 31.8686 34.105 31.7728C34.0091 31.677 33.9612 31.5811 33.9612 31.4374V30.5748Z" fill="#81325A"/>
<path d="M36.645 31.102C36.5971 31.102 36.5013 31.1019 36.4533 31.054C36.3096 31.054 36.1658 31.1019 36.07 31.1499C35.9741 31.1978 35.9262 31.2936 35.9262 31.3895C35.9262 31.5332 36.0221 31.6291 36.2617 31.6291C36.4054 31.6291 36.5492 31.5812 36.6929 31.4374L36.645 31.102ZM36.6929 31.677C36.5492 31.8208 36.3575 31.8687 36.1179 31.8687C35.9741 31.8687 35.8783 31.8208 35.7825 31.7249C35.6866 31.6291 35.6387 31.5332 35.6387 31.3895C35.6387 31.2457 35.7345 31.1019 35.8783 31.0061C36.07 30.9103 36.2616 30.8624 36.4533 30.8624C36.5492 30.8624 36.5971 30.8623 36.6929 30.9103C36.6929 30.6707 36.5492 30.5748 36.3096 30.5748C36.1658 30.5748 35.9741 30.6228 35.8783 30.7186L35.7345 30.479C35.8304 30.4311 35.8783 30.3831 35.9741 30.3831C36.07 30.3352 36.1658 30.3352 36.2617 30.3352C36.5013 30.3352 36.6929 30.3831 36.8367 30.479C36.9325 30.5748 37.0284 30.7186 37.0284 30.9582V31.4853C37.0284 31.5812 37.0763 31.677 37.1721 31.7249V31.8687C37.0763 31.8687 36.9805 31.8687 36.8846 31.8208C36.7409 31.7728 36.6929 31.7249 36.6929 31.677Z" fill="#81325A"/>
<path d="M38.1311 30.5748H37.9395V30.3831H38.1311V30.0956L38.4187 29.9998V30.431H38.8979V30.6227H38.4187V31.3415C38.4187 31.4374 38.4186 31.5332 38.5145 31.5811C38.5624 31.6291 38.6582 31.677 38.7541 31.677C38.8499 31.677 38.9458 31.677 38.9937 31.629L39.0416 31.8686C38.8979 31.9166 38.7541 31.9166 38.6103 31.9166C38.4666 31.9166 38.3707 31.8686 38.2749 31.7728C38.179 31.677 38.1311 31.5811 38.1311 31.4374V30.5748Z" fill="#81325A"/>
<path d="M40.191 29.8081C40.239 29.8081 40.2869 29.8081 40.3348 29.856C40.3827 29.9039 40.3827 29.9039 40.3827 29.9519C40.3827 29.9998 40.3827 30.0477 40.3348 30.0477C40.2869 30.0956 40.239 30.0956 40.191 30.0956C40.1431 30.0956 40.0952 30.0956 40.0473 30.0477C39.9994 29.9998 39.9994 29.9998 39.9994 29.9519C39.9994 29.9039 39.9994 29.856 40.0473 29.856C40.0952 29.8081 40.1431 29.8081 40.191 29.8081ZM39.9994 31.8208V30.5748H39.7598V30.3352H40.2869V31.8208H39.9994Z" fill="#81325A"/>
<path d="M41.5332 31.102C41.5332 31.4853 41.6769 31.6291 42.0124 31.6291C42.1561 31.6291 42.2519 31.5812 42.3478 31.4853C42.4436 31.3895 42.4916 31.2457 42.4916 31.102C42.4916 30.7186 42.3478 30.5748 42.0124 30.5748C41.8686 30.5748 41.7728 30.6228 41.6769 30.7186C41.5811 30.8144 41.5332 30.9582 41.5332 31.102ZM41.2456 31.102C41.2456 30.9103 41.3415 30.6707 41.4852 30.5269C41.629 30.3832 41.8686 30.2873 42.0603 30.3352C42.2999 30.3352 42.4916 30.3832 42.6353 30.5269C42.7791 30.6707 42.8749 30.8624 42.827 31.102C42.827 31.2937 42.7791 31.4853 42.6353 31.677C42.4916 31.8208 42.252 31.9166 42.0603 31.8687C41.8207 31.8687 41.629 31.8208 41.4852 31.677C41.2935 31.4853 41.1977 31.2937 41.2456 31.102Z" fill="#81325A"/>
<path d="M44.7438 31.8208V30.9583C44.7438 30.8145 44.6959 30.6707 44.648 30.6228C44.5521 30.5749 44.4563 30.527 44.3604 30.527C44.2646 30.527 44.2167 30.5269 44.1208 30.5749C44.0729 30.6228 43.9771 30.6707 43.9291 30.7187V31.8208H43.6416V30.3353H43.8333L43.9291 30.527C44.025 30.3832 44.2167 30.2874 44.4084 30.2874C44.7917 30.2874 44.9834 30.479 44.9834 30.8624V31.7729L44.7438 31.8208Z" fill="#81325A"/>
<path d="M49.1049 29.904L49.0091 30.1436C48.9132 30.0957 48.7215 30.0478 48.5298 30.0478C48.3382 30.0478 48.1465 30.1436 48.0027 30.2874C47.859 30.4311 47.811 30.6707 47.811 30.8624C47.811 31.0541 47.859 31.2458 48.0027 31.4375C48.1465 31.5812 48.3382 31.6771 48.4819 31.6291C48.7215 31.6291 48.8653 31.5812 49.0091 31.4375L49.2008 31.6291C49.0091 31.7729 48.7215 31.8688 48.4819 31.8688C48.1944 31.8688 47.9069 31.7729 47.7631 31.5812C47.5714 31.3896 47.4756 31.102 47.4756 30.8145C47.4756 30.527 47.5714 30.2874 47.7631 30.0478C47.9548 29.8561 48.2423 29.7603 48.4819 29.7603C48.7215 29.8082 48.9132 29.8082 49.1049 29.904Z" fill="#81325A"/>
<path d="M51.0699 31.102C51.022 31.102 50.9261 31.1019 50.8782 31.054C50.7345 31.054 50.5907 31.1019 50.4948 31.1499C50.399 31.1978 50.3511 31.2936 50.3511 31.3895C50.3511 31.5332 50.4469 31.6291 50.6865 31.6291C50.8303 31.6291 50.9741 31.5812 51.1178 31.4374V31.102H51.0699ZM51.0699 31.677C50.9261 31.8208 50.7344 31.8687 50.4948 31.8687C50.3511 31.8687 50.2553 31.8208 50.1594 31.7249C50.0636 31.6291 50.0156 31.5332 50.0156 31.3895C50.0156 31.2457 50.1115 31.1019 50.2552 31.0061C50.4469 30.9103 50.6386 30.8624 50.8303 30.8624C50.9261 30.8624 50.974 30.8623 51.0699 30.9103C51.0699 30.6707 50.9261 30.5748 50.6865 30.5748C50.5428 30.5748 50.3511 30.6228 50.2552 30.7186L50.1115 30.479C50.2073 30.4311 50.2552 30.3831 50.3511 30.3831C50.4469 30.3352 50.5428 30.3352 50.6386 30.3352C50.8782 30.3352 51.0699 30.3831 51.2136 30.479C51.3095 30.5748 51.4053 30.7186 51.4053 30.9582V31.4853C51.4053 31.5812 51.4533 31.677 51.5491 31.7249V31.8687C51.4533 31.8687 51.3574 31.8687 51.2616 31.8208C51.1657 31.7728 51.1178 31.7249 51.0699 31.677Z" fill="#81325A"/>
<path d="M52.5071 30.5748H52.3154V30.3831H52.5071V30.0956L52.7946 29.9998V30.431H53.2738V30.6227H52.7946V31.3415C52.7946 31.4374 52.7946 31.5332 52.8905 31.5811C52.9384 31.6291 53.0342 31.677 53.1301 31.677C53.2259 31.677 53.3217 31.677 53.3697 31.629L53.4176 31.8686C53.2738 31.9166 53.1301 31.9166 52.9863 31.9166C52.8425 31.9166 52.7467 31.8686 52.6509 31.7728C52.555 31.677 52.5071 31.5811 52.5071 31.4374V30.5748Z" fill="#81325A"/>
<path d="M55.3345 31.8208V30.9103C55.3345 30.8144 55.2866 30.7186 55.2387 30.6707C55.1428 30.6228 55.047 30.5748 54.9512 30.5748C54.8074 30.5748 54.6636 30.6228 54.5678 30.7665V31.8687H54.2803V29.8081H54.5678V30.5748C54.6157 30.5269 54.7116 30.479 54.7595 30.4311C54.8553 30.3831 54.9512 30.3832 55.047 30.3832C55.1908 30.3832 55.3825 30.4311 55.4783 30.5269C55.5741 30.6228 55.6221 30.7665 55.6221 30.9582V31.8687H55.3345V31.8208Z" fill="#81325A"/>
<path d="M57.2996 30.5749C57.1558 30.5749 57.06 30.6228 56.9641 30.6707C56.8683 30.7186 56.8204 30.8145 56.8204 30.9103H57.7788C57.7788 30.8145 57.7309 30.7186 57.635 30.6707C57.5871 30.5749 57.4433 30.5749 57.2996 30.5749ZM58.0663 31.1499H56.8204C56.8204 31.2937 56.8683 31.4374 56.9641 31.5333C57.06 31.6291 57.2038 31.6771 57.3475 31.6291C57.4913 31.6291 57.683 31.5812 57.7788 31.4854L57.9225 31.6771C57.8746 31.725 57.7788 31.7729 57.6829 31.7729C57.5392 31.8208 57.3954 31.8208 57.2517 31.8208C57.06 31.8208 56.8683 31.7729 56.6766 31.6291C56.4849 31.4854 56.3891 31.2937 56.437 31.0541C56.437 30.8145 56.5329 30.6228 56.6766 30.479C56.8204 30.3353 57.0121 30.2874 57.2517 30.2874C57.4913 30.2874 57.683 30.3353 57.8267 30.479C57.9705 30.5749 58.0184 30.7666 58.0184 30.9103C58.0663 31.0062 58.0663 31.0541 58.0663 31.1499Z" fill="#81325A"/>
<path d="M59.0726 30.5748H58.833V30.3831H59.0247V30.0956L59.3122 29.9998V30.431H59.7914V30.6227H59.3122V31.3415C59.3122 31.4374 59.3122 31.5332 59.4081 31.5811C59.456 31.6291 59.5518 31.677 59.6477 31.677C59.7435 31.677 59.8394 31.677 59.8873 31.629L59.9352 31.8686C59.7914 31.9166 59.6477 31.9166 59.5039 31.9166C59.3601 31.9166 59.2643 31.8686 59.1685 31.7728C59.0726 31.677 59.0247 31.5811 59.0247 31.4374L59.0726 30.5748Z" fill="#81325A"/>
<path d="M61.5164 30.5749C61.3726 30.5749 61.2768 30.6228 61.181 30.6707C61.0851 30.7186 61.0372 30.8145 61.0372 30.9103H61.9956C61.9956 30.8145 61.9477 30.7186 61.8998 30.6707C61.756 30.5749 61.6601 30.5749 61.5164 30.5749ZM62.2831 31.1499H61.0372C61.0372 31.2937 61.0851 31.4374 61.181 31.5333C61.2768 31.6291 61.4206 31.6771 61.5643 31.6291C61.7081 31.6291 61.8997 31.5812 61.9956 31.4854L62.1394 31.6771C62.0915 31.725 61.9956 31.7729 61.8998 31.7729C61.756 31.8208 61.6122 31.8208 61.4685 31.8208C61.2768 31.8208 61.0851 31.7729 60.8934 31.6291C60.7017 31.4854 60.6059 31.2937 60.6538 31.0541C60.6538 30.8145 60.7497 30.6228 60.8934 30.479C61.0372 30.3353 61.2289 30.2874 61.4685 30.2874C61.7081 30.2874 61.8998 30.3353 62.0435 30.479C62.1873 30.5749 62.2352 30.7666 62.2352 30.9103C62.2831 31.0062 62.2831 31.0541 62.2831 31.1499Z" fill="#81325A"/>
<path d="M64.1039 30.6227C64.0559 30.5748 63.9601 30.5748 63.9122 30.5748C63.8163 30.5748 63.7205 30.6228 63.6247 30.7186C63.5288 30.8144 63.4809 30.9103 63.4809 31.0061V31.8687H63.1934V30.3831H63.4809V30.6227C63.5767 30.4311 63.7684 30.3352 64.008 30.3352C64.1039 30.3352 64.1518 30.3352 64.2476 30.3831L64.1039 30.6227Z" fill="#81325A"/>
<path d="M7.41323 23.9617C7.50908 24.1534 7.65283 24.2972 7.7966 24.4409C7.94036 24.5368 8.13203 24.5847 8.32371 24.5847C8.5154 24.5847 8.65916 24.5368 8.80292 24.4409C8.9946 24.2972 9.04255 24.0576 8.94671 23.8659C8.94671 23.818 8.89878 23.818 8.85086 23.7701C8.7071 23.6263 8.56333 23.5304 8.37165 23.4825C8.32373 23.4825 8.2758 23.4346 8.17996 23.3867C7.70075 23.195 7.41323 23.0512 7.31739 23.0033C7.17362 22.9075 7.02985 22.7637 6.88609 22.572C6.79025 22.4283 6.74233 22.2366 6.74233 22.0928C6.74233 21.7095 6.93403 21.3261 7.26948 21.0865C7.60492 20.8469 8.03619 20.7031 8.56332 20.7031C8.89876 20.7031 9.23423 20.7511 9.56967 20.8948C9.8572 21.0386 10.0968 21.2303 10.2405 21.5178L9.66552 21.8532C9.56968 21.6616 9.42589 21.5178 9.28213 21.4219C9.09045 21.3261 8.89879 21.2782 8.7071 21.2782C8.56334 21.2782 8.37166 21.3261 8.22789 21.4219C8.13205 21.5178 8.0362 21.6136 8.0362 21.7574C8.0362 21.8532 8.08411 21.997 8.17996 22.0449C8.2758 22.1407 8.46749 22.2366 8.75501 22.3324L8.85086 22.3804C9.37799 22.572 9.71343 22.7158 9.80927 22.8117C9.95304 22.9075 10.0968 23.0513 10.2405 23.195C10.3364 23.3388 10.3843 23.5305 10.3843 23.6742C10.3843 24.1055 10.1926 24.4409 9.85718 24.6805C9.52174 24.9201 9.04255 25.0639 8.4675 25.0639C8.08413 25.0639 7.74866 25.016 7.3653 24.8722C7.07777 24.7285 6.83817 24.5368 6.64648 24.2493L7.41323 23.9617Z" fill="#81325A"/>
<path d="M13.5959 23.243H14.8898L14.2189 21.7574L13.5959 23.243ZM12.1104 25.016L13.8834 20.8469H15.3211L17.2379 25.016H15.7044L15.1294 23.7701H13.3563L12.8292 25.016H12.1104Z" fill="#81325A"/>
<path d="M20.7355 21.3261V22.7638H21.0709C21.4064 22.7638 21.6939 22.7158 21.8376 22.62C21.9814 22.5242 22.1252 22.3325 22.0773 22.1408C22.0773 21.9012 21.9814 21.7095 21.7897 21.5657C21.5981 21.422 21.3584 21.3261 21.023 21.3261H20.7355ZM19.2979 25.016V20.8469H21.4064C22.0773 20.8469 22.6044 20.9428 22.9878 21.1824C23.3232 21.3741 23.5628 21.7574 23.5628 22.1887C23.5628 22.5241 23.419 22.8596 23.1315 23.0034C22.844 23.195 22.4606 23.2909 21.9335 23.2909H20.7834V24.9681L19.2979 25.016Z" fill="#81325A"/>
<path d="M27.1573 21.3261V22.7638H27.4927C27.8282 22.7638 28.1157 22.7158 28.2595 22.62C28.4032 22.5242 28.4991 22.3325 28.4991 22.1408C28.4991 21.9012 28.4032 21.7095 28.2115 21.5657C28.0198 21.422 27.7803 21.3261 27.4448 21.3261H27.1573ZM25.7676 25.016V20.8469H27.8761C28.547 20.8469 29.0741 20.9428 29.4575 21.1824C29.7929 21.3741 30.0325 21.7574 30.0325 22.1887C30.0325 22.5241 29.8888 22.8596 29.6012 23.0034C29.3137 23.195 28.9304 23.2909 28.4032 23.2909H27.2531V24.9681L25.7676 25.016Z" fill="#81325A"/>
<path d="M35.2553 22.6201V20.7991H36.693V25.0161H35.2553V23.1951H33.674V25.0161H32.2363V20.7991H33.674V22.6201H35.2553Z" fill="#81325A"/>
<path d="M40.9103 20.7991H39.4248V24.9682H40.9103V20.7991Z" fill="#81325A"/>
<path d="M43.6416 25.016V20.8469H45.9418C46.6127 20.8469 47.1398 20.9428 47.4753 21.1824C47.8586 21.422 48.0503 21.7095 48.0503 22.1408C48.0503 22.4283 47.9545 22.6679 47.7628 22.8596C47.5711 23.0513 47.2357 23.195 46.8523 23.243L48.0982 25.0639H46.4689L45.1751 22.9075H45.5105C45.8939 22.9075 46.1335 22.8596 46.3252 22.7158C46.5169 22.5721 46.5648 22.4283 46.5648 22.1408C46.5648 21.8533 46.4689 21.6616 46.2772 21.5657C46.0856 21.422 45.798 21.3741 45.4147 21.3741H45.0313V25.0639H43.6416V25.016Z" fill="#81325A"/>
<path d="M50.4463 25.0161V20.7991H53.7049V21.3741H51.9318V22.6201H53.6091V23.1951H51.9318V24.441H53.8007V25.0161H50.4463Z" fill="#81325A"/>
<path d="M54.3274 21.1345C54.3754 20.9908 54.4712 20.8949 54.615 20.847C54.6629 20.7991 54.7587 20.7991 54.8066 20.7991C54.8546 20.7991 54.9504 20.7991 54.9983 20.847C55.0463 20.8949 55.0942 20.8949 55.1421 20.9428C55.19 20.9907 55.2379 21.0387 55.2379 21.0866C55.2859 21.2303 55.2859 21.3741 55.2379 21.5179C55.19 21.5658 55.19 21.6616 55.1421 21.7095C55.0463 21.8054 54.9025 21.8533 54.7587 21.8533C54.7108 21.8533 54.615 21.8533 54.567 21.8054C54.5191 21.8054 54.4233 21.7575 54.3754 21.7095C54.3275 21.6616 54.2795 21.6137 54.2795 21.5658C54.2316 21.422 54.2316 21.2783 54.3274 21.1345ZM54.3754 21.5179C54.4712 21.7575 54.7108 21.8533 54.9025 21.7575C54.9504 21.7575 54.9983 21.7096 55.0462 21.6616C55.0942 21.6137 55.1421 21.5658 55.1421 21.5179C55.19 21.422 55.19 21.2783 55.1421 21.1824C55.1421 21.1345 55.0942 21.0866 55.0462 21.0387C54.9983 20.9908 54.9504 20.9428 54.9025 20.9428C54.8067 20.8949 54.6629 20.8949 54.567 20.9428C54.5191 20.9428 54.4712 20.9908 54.4233 21.0387C54.3754 21.0866 54.3754 21.1345 54.3274 21.1824C54.3274 21.2783 54.3275 21.422 54.3754 21.5179ZM54.8066 21.0387C54.8546 21.0387 54.9025 21.0387 54.9504 21.0866C54.9984 21.1345 54.9983 21.1824 54.9983 21.2303C54.9983 21.2783 54.9984 21.3262 54.9504 21.3262C54.9025 21.3741 54.9025 21.3741 54.8546 21.3741L55.0462 21.6616H54.9504L54.8066 21.422H54.7108V21.6616H54.615V21.0387H54.8066ZM54.7587 21.3262H54.8066H54.8546C54.8546 21.3262 54.9025 21.3262 54.9025 21.2783V21.2303V21.1824C54.9025 21.1824 54.9025 21.1824 54.8546 21.1345H54.8066H54.7587H54.615V21.3262H54.7587Z" fill="#81325A"/>
</svg>
