<svg width="155" height="26" viewBox="0 0 155 26" fill="none" xmlns="http://www.w3.org/2000/svg">
<path d="M144.827 15.6948L140.759 6.0668L136.555 15.6948H144.827ZM145.234 16.9153H136.013L134.386 20.7122C133.979 21.6615 133.843 22.3395 133.843 22.7463C133.843 23.1531 133.979 23.4243 134.386 23.6955C134.792 23.9667 135.47 24.1024 136.691 24.238V24.916H129.097V24.238C130.046 24.1024 130.724 23.8312 130.995 23.5599C131.538 23.0175 132.216 21.9327 133.03 20.1698L141.437 0.642578H142.115L150.523 20.3054C151.201 21.9327 151.743 22.8819 152.286 23.4243C152.828 23.8311 153.642 24.1024 154.591 24.238V24.916H145.098V24.238C146.048 24.238 146.726 23.9667 146.997 23.6955C147.268 23.4243 147.539 23.1531 147.539 22.7463C147.539 22.2039 147.268 21.3902 146.861 20.3054L145.234 16.9153ZM127.877 24.238V24.916H117.571V24.238H118.384C119.333 24.238 120.147 23.9668 120.554 23.4243C120.825 23.0175 120.961 22.2039 120.961 20.7122V5.38878C120.961 4.16832 120.825 3.35469 120.689 2.94787C120.554 2.67666 120.283 2.40546 120.011 2.13425C119.469 1.86304 118.927 1.72743 118.384 1.72743H117.571V1.0494H127.877V1.72743H127.063C126.114 1.72743 125.436 1.99865 124.893 2.54107C124.622 2.94789 124.486 3.76152 124.486 5.25318V20.7122C124.486 21.9327 124.622 22.7463 124.758 23.1531C124.893 23.4243 125.164 23.6955 125.436 23.9667C125.978 24.238 126.521 24.3736 127.063 24.3736H127.877V24.238ZM90.0426 1.18501H96.5517L111.197 18.9493V5.25318C111.197 3.76152 111.061 2.94789 110.655 2.54107C110.248 1.99865 109.57 1.86304 108.621 1.86304H107.807V1.18501H116.214V1.86304H115.401C114.452 1.86304 113.638 2.13425 113.231 2.81228C112.96 3.21909 112.824 4.03272 112.824 5.38878V25.3228H112.146L96.416 6.20242V20.8478C96.416 22.3395 96.5517 23.1531 96.9585 23.5599C97.3653 24.1024 98.0433 24.238 98.9926 24.238H99.8062V24.916H91.5342V24.238H92.3478C93.4327 24.238 94.1108 23.9667 94.5176 23.2887C94.7888 22.8819 94.9244 22.0683 94.9244 20.7122V4.16833C94.2464 3.3547 93.7039 2.81228 93.2971 2.54107C92.8903 2.26986 92.3478 1.99865 91.6698 1.86304C91.263 1.72744 90.8562 1.72743 90.1782 1.72743V1.18501H90.0426ZM73.7699 12.7115C74.0412 12.7115 74.1767 12.7115 74.3123 12.7115C74.4479 12.7115 74.5835 12.7115 74.7191 12.7115C77.0244 12.7115 78.7873 12.1691 79.8722 11.2198C81.0926 10.2706 81.6351 9.05013 81.6351 7.42286C81.6351 5.9312 81.2282 4.71075 80.279 3.76151C79.3298 2.81227 78.1093 2.40546 76.6176 2.40546C75.9396 2.40546 74.9904 2.54106 73.9055 2.67666V12.7115H73.7699ZM90.8562 24.916H84.4827L76.3464 13.7963C75.804 13.7963 75.2616 13.7963 74.8548 13.7963C74.7192 13.7963 74.5835 13.7963 74.3123 13.7963C74.1767 13.7963 73.9055 13.7963 73.7699 13.7963V20.7122C73.7699 22.2039 73.9055 23.1531 74.3123 23.5599C74.7191 24.1024 75.3972 24.3736 76.3464 24.3736H77.2957V25.0516H66.9897V24.3736H67.9388C68.8881 24.3736 69.7018 24.1024 70.1086 23.4243C70.3798 23.0175 70.5154 22.2039 70.5154 20.8478V5.52439C70.5154 4.03273 70.3797 3.08349 69.9729 2.81228C69.5661 2.26985 68.8881 1.99863 67.9388 1.99863H66.9897V1.32061H75.6684C78.2449 1.32061 80.1434 1.45622 81.2282 1.86304C82.4487 2.26986 83.3979 2.94789 84.3472 3.89713C85.1608 4.84636 85.5676 6.0668 85.5676 7.42286C85.5676 8.91452 85.0252 10.135 84.0759 11.2198C83.1267 12.3047 81.6351 12.9827 79.601 13.5251L84.4827 20.3054C85.5676 21.9327 86.6525 22.8819 87.3305 23.4243C88.1441 23.9668 89.229 24.238 90.4494 24.3736V24.916H90.8562ZM51.8018 2.54107V11.8979H57.0904C58.4464 11.8979 59.3957 11.6266 59.8025 11.3554C60.4805 10.813 60.7518 9.86377 60.8874 8.50771H61.5654V16.7797H60.8874C60.7518 15.6948 60.6162 14.8812 60.345 14.61C60.0737 14.2031 59.8025 13.9319 59.2601 13.6607C58.7177 13.3895 58.0396 13.2539 57.0904 13.2539H51.8018V21.119C51.8018 22.2039 51.8018 22.7463 51.9374 23.0175C52.073 23.2887 52.2086 23.4243 52.4798 23.5599C52.7511 23.6955 53.1579 23.6955 53.8359 23.6955H57.9041C59.2601 23.6955 60.2094 23.5599 60.8874 23.4243C61.5654 23.2887 62.1078 22.8819 62.6503 22.3395C63.3283 21.6615 64.1419 20.5766 64.9556 19.085H65.6336L63.5995 25.0516H45.1571V24.3736H45.9708C46.5132 24.3736 47.0556 24.238 47.598 23.9667C48.0048 23.8311 48.2761 23.5599 48.4117 23.1531C48.5473 22.7463 48.5472 22.0683 48.5472 20.8478V5.38878C48.5472 3.89711 48.4117 2.94789 48.1404 2.54107C47.7336 2.13425 47.0556 1.86304 45.9708 1.86304H45.1571V1.18501H63.5995L63.8707 6.33801H63.0571C62.7859 5.11756 62.5147 4.30393 62.2435 3.76151C61.9723 3.35469 61.5654 2.94787 60.8874 2.67666C60.4806 2.54106 59.5313 2.40546 58.4464 2.40546H51.8018V2.54107ZM43.123 1.18501L43.3942 6.74483H42.7162C42.5806 5.79559 42.445 5.11756 42.1738 4.71075C41.7669 4.03272 41.3602 3.49031 40.6821 3.2191C40.1397 2.94789 39.3261 2.67666 38.2413 2.67666H34.8511V20.8478C34.8511 22.3395 34.9867 23.1531 35.3935 23.5599C35.8003 24.1024 36.4783 24.238 37.4276 24.238H38.2413V24.916H28.0708V24.238H28.8844C29.8337 24.238 30.6474 23.9667 31.0542 23.2887C31.3254 22.8819 31.461 22.0683 31.461 20.7122V2.54107H28.6132C27.5284 2.54107 26.7147 2.67667 26.1723 2.81228C25.4943 3.08349 25.0875 3.4903 24.545 4.03272C24.1382 4.71075 23.867 5.52439 23.7314 6.60924H23.0534L23.3246 1.0494H43.123V1.18501ZM7.59433 2.54107V11.8979H12.883C14.239 11.8979 15.1883 11.6266 15.5951 11.3554C16.2731 10.813 16.5443 9.86377 16.6799 8.50771H17.358V16.7797H16.6799C16.5443 15.6948 16.4088 14.8812 16.1376 14.61C15.8663 14.2031 15.5951 13.9319 15.0526 13.6607C14.5102 13.3895 13.8322 13.2539 12.883 13.2539H7.59433V21.119C7.59433 22.2039 7.59438 22.7463 7.72999 23.0175C7.86559 23.2887 8.00115 23.4243 8.27236 23.5599C8.54357 23.6955 8.95039 23.6955 9.62842 23.6955H13.6966C15.0526 23.6955 16.0019 23.5599 16.6799 23.4243C17.358 23.2887 17.9004 22.8819 18.4428 22.3395C19.1208 21.6615 19.9345 20.5766 20.7481 19.085H21.4261L19.392 25.0516H0.949707V24.3736H1.76331C2.30573 24.3736 2.84817 24.238 3.39059 23.9667C3.79741 23.8311 4.06859 23.5599 4.20419 23.1531C4.3398 22.7463 4.33985 22.0683 4.33985 20.8478V5.38878C4.33985 3.89711 4.20426 2.94789 3.93305 2.54107C3.52623 2.13425 2.84815 1.86304 1.76331 1.86304H0.949707V1.18501H19.392L19.6633 6.33801H18.9852C18.714 5.11756 18.4428 4.30393 18.1716 3.76151C17.9004 3.35469 17.4936 2.94787 16.8156 2.67666C16.4088 2.54106 15.4595 2.40546 14.3746 2.40546H7.59433V2.54107Z" fill="#AE4B83"/>
</svg>
